<svg width="29" height="213" viewBox="0 0 29 213" fill="none" xmlns="http://www.w3.org/2000/svg">
<g clip-path="url(#clip0_42_145)">
<path d="M22.59 6.54002C23.4 5.49002 23.58 5.34002 23.7 5.34002C23.85 5.34002 24.12 5.49002 25.32 6.51002C26.61 7.56002 26.73 7.71002 26.73 8.04002C26.73 8.34002 26.52 8.52002 26.1 8.55002C25.68 8.55002 25.29 8.58002 24.81 8.58002C24.48 8.61002 24.24 8.64002 23.97 8.79002C23.31 9.12002 22.62 9.51002 21.87 9.93002C21.78 9.99002 21.57 9.81002 21.63 9.69002C22.08 8.85002 22.38 8.25002 22.68 7.62002C22.74 7.50002 22.68 7.47002 22.59 7.47002H6.53998C6.44998 7.47002 6.38998 7.53002 6.38998 7.62002V10.23C6.38998 20.37 4.67998 23.61 0.779978 26.97C0.689978 27.03 0.539978 26.91 0.539978 26.82C0.539978 26.76 0.569978 26.73 0.629978 26.64C2.99998 23.4 3.95998 19.77 3.95998 11.91C3.95998 9.00002 3.83998 6.84002 3.47998 5.37002C3.44998 5.22002 3.53998 5.13002 3.65998 5.19002C4.58998 5.61002 5.57998 6.12002 6.47998 6.63002C6.59998 6.72002 6.71998 6.75002 6.89998 6.75002H12.12C12.21 6.75002 12.27 6.69002 12.27 6.60002V3.81002C12.27 2.13002 12.15 1.23002 11.88 0.510017C11.88 0.390017 11.94 0.330017 12.03 0.330017C15.6 1.05002 15.75 1.20002 15.75 1.50002C15.75 1.71002 15.6 1.89002 14.97 2.31002C14.79 2.43002 14.76 2.49002 14.73 2.67002C14.7 2.91002 14.7 3.15002 14.7 3.42002C14.7 3.51002 14.76 3.57002 14.85 3.57002H18.87C19.05 3.57002 19.11 3.54002 19.23 3.39002C20.37 1.95002 20.52 1.80002 20.67 1.80002C20.79 1.80002 21.03 1.95002 22.11 2.82002C23.13 3.63002 23.22 3.81002 23.22 3.99002C23.22 4.17002 23.13 4.29002 22.92 4.29002H14.85C14.76 4.29002 14.7 4.35002 14.7 4.44002V6.60002C14.7 6.69002 14.76 6.75002 14.85 6.75002H22.23C22.38 6.75002 22.5 6.69002 22.59 6.54002ZM4.64998 27.12C4.13998 27.24 4.01998 27.27 3.95998 27.27C3.86998 27.27 3.74998 27.06 3.86998 27C7.82998 25.26 10.02 22.71 10.32 18.51C10.38 17.76 10.35 17.16 10.11 16.53C10.08 16.41 10.17 16.32 10.29 16.35C13.74 17.19 13.86 17.31 13.86 17.64C13.86 17.85 13.68 18.09 13.02 18.45C12.87 18.54 12.84 18.6 12.81 18.81C12.24 23.58 9.29998 25.95 4.64998 27.12ZM23.85 14.85C22.98 15.3 21.33 15.51 17.91 15.51C12.72 15.51 12.09 15.12 12.09 12.99C12.09 12.81 12.09 12.45 12.12 11.94C12.12 11.82 12.06 11.79 12 11.79L11.28 11.91C9.50998 12.21 8.69998 12.39 7.94998 12.72C7.82998 12.75 7.76998 12.75 7.64998 12.66C7.34998 12.39 7.04998 12.09 6.77998 11.79C6.65998 11.67 6.68998 11.58 6.80998 11.55C8.12998 11.58 9.38998 11.49 11.19 11.19L11.97 11.07C12.06 11.04 12.12 10.98 12.12 10.89V10.02C12.12 9.09002 12.06 8.43002 11.91 7.98002C11.91 7.89002 11.97 7.83002 12.06 7.83002C15.06 8.43002 15.24 8.58002 15.24 8.85002C15.24 9.06002 15.12 9.15002 14.61 9.48002C14.49 9.57002 14.43 9.63002 14.43 9.78002C14.4 9.99002 14.4 10.23 14.4 10.47C14.4 10.59 14.46 10.65 14.55 10.62L16.86 10.23C17.04 10.2 17.13 10.17 17.22 9.99002C18 8.58002 18.09 8.40002 18.27 8.40002C18.42 8.40002 18.66 8.52002 19.68 9.09002C20.79 9.69002 20.91 9.84002 20.91 10.02C20.91 10.2 20.85 10.29 20.64 10.35L14.55 11.37C14.46 11.4 14.4 11.46 14.4 11.55V12.63C14.4 13.53 14.7 13.62 17.91 13.62C21.42 13.62 22.17 13.38 22.56 12.36C22.83 11.61 23.04 10.8 23.22 9.87002C23.25 9.75002 23.49 9.75002 23.52 9.87002C23.61 10.68 23.7 11.34 23.82 11.85C23.91 12.24 24.03 12.39 24.3 12.54C24.78 12.75 24.96 12.99 24.96 13.41C24.96 13.98 24.57 14.46 23.85 14.85ZM19.77 17.76C19.77 18 19.62 18.12 18.93 18.6C18.81 18.69 18.78 18.72 18.78 18.9C18.75 19.32 18.75 19.77 18.75 20.31V23.49C18.75 24.45 18.99 24.54 21.24 24.54C23.94 24.54 24.78 24.21 25.23 22.89C25.53 21.99 25.77 20.76 26.01 19.11C26.04 18.99 26.31 18.99 26.31 19.11C26.43 20.31 26.55 21.57 26.7 22.5C26.79 23.01 26.94 23.25 27.21 23.4C27.78 23.67 27.96 23.91 27.96 24.39C27.96 25.05 27.54 25.56 26.79 25.92C25.95 26.37 24.09 26.67 21.21 26.67C16.8 26.67 16.32 26.31 16.32 23.82C16.32 23.07 16.38 21.72 16.38 19.77C16.38 18.18 16.32 17.43 16.11 16.83C16.11 16.71 16.17 16.65 16.26 16.65C19.56 17.34 19.77 17.46 19.77 17.76Z" fill="black"/>
<path d="M27.63 50.43C27.42 52.59 27.24 54.09 27.24 55.2C27.24 55.53 27.36 55.8 27.54 56.04C27.75 56.37 27.87 56.61 27.87 56.97C27.87 57.66 27.45 58.11 26.61 58.11C25.65 58.11 24.06 57.3 22.65 56.04C21.57 55.08 20.61 53.97 19.71 52.59C19.65 52.5 19.62 52.5 19.56 52.56C17.04 55.35 13.86 57.18 10.02 58.32C9.48 58.47 9.39 58.5 9.33 58.5C9.24 58.5 9.12 58.29 9.24 58.23C13.11 56.55 16.29 54 18.6 50.85C18.66 50.76 18.66 50.67 18.63 50.61C18.33 49.95 18.06 49.32 17.76 48.57C16.71 45.9 15.99 42.36 15.54 37.8C15.54 37.68 15.48 37.65 15.39 37.65H5.52C5.43 37.65 5.37 37.71 5.37 37.8V41.16C5.37 42.84 5.34 44.34 5.25 45.69C5.25 45.78 5.31 45.84 5.4 45.84H7.89C7.98 45.84 8.04 45.81 8.07 45.69C8.16 45.27 8.25 44.85 8.34 44.46C8.67 43.02 8.67 42.33 8.58 41.82C8.55 41.73 8.67 41.67 8.79 41.7C11.4 42.6 11.61 42.78 11.61 43.05C11.61 43.26 11.46 43.38 10.71 43.74C10.59 43.8 10.56 43.83 10.5 44.04C10.35 44.61 10.23 45.18 10.08 45.72C10.05 45.81 10.11 45.84 10.2 45.84H13.05C13.23 45.84 13.32 45.81 13.44 45.66C14.31 44.55 14.46 44.43 14.61 44.43C14.76 44.43 14.97 44.58 15.78 45.24C16.65 45.93 16.74 46.05 16.74 46.23C16.74 46.44 16.65 46.53 16.41 46.53H13.05C12.99 46.53 12.99 46.59 13.05 46.62C15.06 47.43 15.24 47.55 15.24 47.82C15.24 48.03 15.09 48.18 14.46 48.45C14.34 48.51 14.28 48.54 14.22 48.72C13.95 49.74 13.59 50.67 13.14 51.51C13.11 51.57 13.11 51.63 13.23 51.69C14.4 52.32 15.12 53.01 15.12 53.73C15.12 54.39 14.73 54.81 14.19 54.81C13.74 54.81 13.44 54.66 12.84 53.97C12.63 53.73 12.42 53.52 12.21 53.28C12.12 53.19 12.06 53.19 12 53.28C10.17 55.53 7.53 56.85 3.93 57.63C3.81 57.66 3.69 57.42 3.81 57.36C6.99 56.1 9.27 54.33 10.65 52.2C10.71 52.11 10.71 52.05 10.62 51.99C10.05 51.6 9.42 51.27 8.76 50.94C8.64 50.88 8.58 50.94 8.55 51.03C8.46 51.3 8.37 51.6 8.28 51.87C8.1 52.5 7.62 52.8 6.84 52.8C6.24 52.8 6.03 52.65 6.03 52.32C6.03 52.11 6.15 51.87 6.24 51.6C6.87 49.92 7.38 48.3 7.83 46.65C7.86 46.56 7.8 46.53 7.71 46.53H5.34C5.25 46.53 5.19 46.56 5.19 46.68C4.68 52.47 3.21 55.23 0.27 57.96C0.18 58.05 0 57.93 0 57.84C0 57.78 0.03 57.75 0.15 57.57C2.16 54.27 3.06 51.03 3.06 43.14C3.06 39 2.94 37.02 2.58 35.52C2.55 35.4 2.64 35.31 2.76 35.34C3.69 35.79 4.56 36.3 5.46 36.81C5.58 36.9 5.7 36.93 5.88 36.93H15.33C15.42 36.93 15.48 36.87 15.45 36.78C15.42 36.33 15.39 35.91 15.36 35.46C15.24 33.93 15.15 32.91 14.79 32.01C14.76 31.92 14.79 31.8 14.91 31.8C18.48 32.52 18.63 32.7 18.63 33.03C18.63 33.24 18.45 33.42 17.82 33.87C17.7 33.96 17.67 34.02 17.67 34.26C17.7 35.13 17.73 36 17.76 36.78C17.76 36.87 17.82 36.93 17.91 36.93H22.86C23.04 36.93 23.13 36.9 23.25 36.75C24.45 35.16 24.6 35.01 24.75 35.01C24.9 35.01 25.11 35.16 26.31 36.12C27.48 37.05 27.57 37.17 27.57 37.35C27.57 37.56 27.48 37.65 27.21 37.65H17.97C17.88 37.65 17.82 37.68 17.82 37.8C18.12 42.03 18.78 45.09 19.68 47.61C19.77 47.88 19.89 48.15 19.98 48.42C20.01 48.48 20.07 48.48 20.1 48.42C20.94 46.89 21.57 45.24 22.02 43.5C22.38 42.09 22.47 41.34 22.44 40.62C22.44 40.5 22.53 40.47 22.65 40.47C25.71 41.97 25.95 42.18 25.95 42.48C25.95 42.75 25.77 42.9 24.87 43.17C24.72 43.2 24.66 43.26 24.57 43.44C23.7 46.2 22.59 48.54 21.18 50.52C21.12 50.61 21.12 50.67 21.18 50.76C22.02 52.14 23.04 53.34 24.21 54.3C24.63 54.63 24.93 54.78 25.17 54.78C25.38 54.78 25.53 54.63 25.77 54.18C26.28 53.22 26.79 51.99 27.33 50.34C27.36 50.22 27.63 50.31 27.63 50.43ZM15.03 41.34H9.93C8.46 41.34 7.44 41.37 6.69 41.52C6.54 41.52 6.48 41.49 6.39 41.37C6.15 41.07 6 40.86 5.79 40.53C5.7 40.41 5.76 40.32 5.88 40.32C7.08 40.56 8.43 40.62 9.93 40.62H11.61C11.79 40.62 11.88 40.59 12 40.44C12.9 39.3 13.05 39.18 13.14 39.18C13.29 39.18 13.5 39.33 14.4 40.05C15.24 40.71 15.33 40.86 15.33 41.04C15.33 41.25 15.24 41.34 15.03 41.34ZM11.4 50.85C11.73 50.13 11.94 49.44 12.12 48.66C12.3 47.85 12.39 47.25 12.33 46.68C12.33 46.56 12.24 46.53 12.15 46.53H10.02C9.93 46.53 9.87 46.56 9.84 46.68C9.51 47.94 9.18 49.08 8.82 50.22C8.79 50.31 8.79 50.37 8.91 50.4C9.75 50.55 10.5 50.73 11.22 50.94C11.31 50.97 11.37 50.91 11.4 50.85ZM23.4 34.62C23.4 35.4 22.89 35.79 22.32 35.79C21.78 35.79 21.48 35.58 21.15 34.98C20.58 34.02 19.98 33.3 19.17 32.64C19.08 32.55 19.2 32.4 19.32 32.4C22.02 32.61 23.4 33.54 23.4 34.62Z" fill="black"/>
<path d="M2.61002 63.3C2.67002 63.3 2.76002 63.33 2.94002 63.42C3.78002 63.81 4.47002 64.2 5.22002 64.65C5.37002 64.74 5.46002 64.7701 5.61002 64.7701H11.34C11.52 64.7701 11.61 64.71 11.7 64.62C12.45 63.69 12.6 63.57 12.75 63.57C12.9 63.57 13.14 63.69 13.95 64.35C14.85 65.01 15 65.19 15 65.37C15 65.58 14.85 65.73 14.25 66.15C14.1 66.24 14.07 66.3 14.07 66.48V67.05C14.07 68.55 14.25 69.69 14.25 70.11C14.25 70.95 13.68 71.34 12.54 71.34C12.15 71.34 11.88 71.13 11.88 70.71V70.5C11.88 70.41 11.82 70.35 11.73 70.35H5.25002C5.16002 70.35 5.10002 70.41 5.10002 70.5V70.89C5.07002 72.45 5.04002 73.86 4.95002 75.15C4.95002 75.24 5.01002 75.3 5.10002 75.3H6.48002C6.57002 75.3 6.63002 75.24 6.63002 75.15V75.0601C6.63002 72.9301 6.51002 72.12 6.27002 71.37C6.27002 71.28 6.33002 71.22 6.42002 71.22C9.03002 71.88 9.21002 72.03 9.21002 72.3C9.21002 72.51 9.03002 72.6601 8.58002 72.9901C8.46002 73.0501 8.40002 73.11 8.40002 73.29C8.37002 73.89 8.37002 74.49 8.37002 75.15C8.37002 75.24 8.43003 75.3 8.52003 75.3H10.35C10.44 75.3 10.5 75.24 10.5 75.15V75.09C10.5 72.99 10.41 72.24 10.14 71.37C10.14 71.28 10.2 71.22 10.29 71.22C12.96 71.91 13.14 72.03 13.14 72.33C13.14 72.51 12.99 72.63 12.51 72.96C12.39 73.05 12.36 73.11 12.33 73.32C12.3 73.92 12.3 74.49 12.3 75.15C12.3 75.24 12.36 75.3 12.45 75.3H12.51C12.63 75.3 12.69 75.27 12.81 75.12C13.56 74.07 13.68 73.92 13.8 73.92C13.95 73.92 14.16 74.07 14.82 74.67L15.18 75C15.24 75.06 15.27 75.06 15.3 75C16.71 72.96 17.01 70.53 17.01 67.08C17.01 65.91 16.92 64.98 16.74 64.05C16.71 63.96 16.8 63.84 16.92 63.87C17.76 64.23 18.57 64.68 19.26 65.1C19.41 65.19 19.5 65.22 19.62 65.22H20.79C20.94 65.22 21.03 65.19 21.12 65.07C21.87 64.2 22.02 64.05 22.14 64.05C22.32 64.05 22.53 64.2001 23.28 64.7701C24.09 65.4001 24.24 65.55 24.24 65.76C24.24 65.94 24.09 66.09 23.49 66.48C23.34 66.57 23.31 66.63 23.31 66.78V70.92C23.31 71.7 23.49 71.79 24.42 71.79C25.35 71.79 25.8 71.61 26.07 70.8C26.25 70.23 26.46 69.27 26.67 68.07C26.7 67.95 26.97 67.95 26.97 68.07C27.06 69.21 27.15 69.9 27.24 70.35C27.3 70.68 27.39 70.89 27.66 71.07C28.02 71.31 28.23 71.5201 28.23 71.8801C28.23 72.5101 27.84 72.93 27.12 73.29C26.55 73.56 25.77 73.68 24.36 73.68C21.78 73.68 21.24 73.2 21.24 71.07C21.24 70.62 21.27 69.6301 21.27 67.7701V66.09C21.27 66 21.21 65.94 21.12 65.94H19.29C19.2 65.94 19.14 65.97 19.14 66.09C19.14 70.89 18.36 73.11 15.54 75.15C15.45 75.21 15.45 75.24 15.51 75.3C15.72 75.54 15.75 75.6 15.75 75.72C15.75 75.93 15.66 76.0201 15.42 76.0201H12.45C12.36 76.0201 12.3 76.08 12.3 76.17V80.76C12.3 80.85 12.36 80.91 12.45 80.91H12.93C13.08 80.91 13.14 80.88 13.26 80.73C14.16 79.5 14.28 79.35 14.4 79.35C14.55 79.35 14.73 79.5 15.54 80.19C16.44 81 16.56 81.15 16.56 81.33C16.56 81.51 16.44 81.6301 16.23 81.6301H4.20002C4.11002 81.6301 4.05002 81.66 4.02002 81.78C3.33002 84.42 2.19002 86.4001 0.390024 88.5601C0.300024 88.6501 0.150024 88.5 0.150024 88.41C0.150024 88.35 0.180024 88.29 0.210024 88.23C2.40002 83.85 2.97002 79.8 2.97002 70.53C2.97002 66.72 2.91002 64.98 2.52002 63.48C2.49002 63.36 2.55002 63.3 2.61002 63.3ZM2.22002 89.55C2.10002 89.61 1.98002 89.4001 2.07002 89.3101C3.66002 88.0201 5.28002 86.07 6.15002 84.21C6.39002 83.7 6.54002 83.13 6.57002 82.68C6.57002 82.56 6.66002 82.47 6.81002 82.53C9.18002 83.7 9.57002 83.9701 9.57002 84.2701C9.57002 84.5401 9.42002 84.69 8.58002 84.78C8.43003 84.81 8.34002 84.8701 8.22003 84.9901C6.60003 87.0301 4.41002 88.59 2.22002 89.55ZM4.89002 76.17C4.77002 77.91 4.56002 79.44 4.26002 80.79C4.23002 80.88 4.29002 80.91 4.38002 80.91H6.48002C6.57002 80.91 6.63002 80.85 6.63002 80.76V76.17C6.63002 76.08 6.57002 76.0201 6.48002 76.0201H5.04002C4.95002 76.0201 4.89002 76.05 4.89002 76.17ZM5.13002 65.64V69.48C5.13002 69.57 5.19002 69.6301 5.28002 69.6301H11.73C11.82 69.6301 11.88 69.57 11.88 69.48V65.64C11.88 65.55 11.82 65.4901 11.73 65.4901H5.28002C5.19002 65.4901 5.13002 65.55 5.13002 65.64ZM10.35 76.0201H8.52003C8.43003 76.0201 8.37002 76.08 8.37002 76.17V80.76C8.37002 80.85 8.43003 80.91 8.52003 80.91H10.35C10.44 80.91 10.5 80.85 10.5 80.76V76.17C10.5 76.08 10.44 76.0201 10.35 76.0201ZM10.29 82.65C13.2 83.58 14.49 84.9 14.49 86.07C14.49 86.91 14.04 87.39 13.44 87.39C12.84 87.39 12.48 87.06 12.18 86.16C11.73 84.87 11.13 83.88 10.11 82.89C10.02 82.8 10.17 82.62 10.29 82.65ZM20.49 85.35C20.43 85.29 20.37 85.26 20.31 85.32C18.12 87.33 15.42 88.6501 12.3 89.4901C11.97 89.5801 11.85 89.61 11.79 89.61C11.67 89.61 11.55 89.4 11.67 89.34C14.73 87.99 17.28 86.16 19.23 83.85C19.29 83.79 19.29 83.7 19.23 83.61C18.12 81.84 17.37 79.8 16.89 77.37C16.86 77.25 16.83 77.25 16.71 77.25C16.5 77.25 16.32 77.2801 16.11 77.3101C15.96 77.3101 15.9 77.28 15.81 77.16C15.57 76.89 15.42 76.68 15.18 76.32C15.12 76.2 15.18 76.11 15.3 76.11C16.71 76.32 18.06 76.41 20.22 76.41H22.23C22.41 76.41 22.47 76.38 22.59 76.23C23.49 75.12 23.64 74.97 23.79 74.97C23.94 74.97 24.18 75.12 25.14 75.9C26.1 76.68 26.28 76.89 26.28 77.1C26.28 77.34 26.1 77.46 25.2 77.85C25.02 77.94 24.99 77.97 24.93 78.15C24.18 80.31 23.13 82.1401 21.84 83.7001C21.78 83.76 21.81 83.85 21.87 83.91C23.73 85.47 26.1 86.55 28.83 87.09C28.92 87.1201 28.92 87.1801 28.92 87.2401C28.92 87.3001 28.92 87.36 28.83 87.39C27.63 87.63 26.37 88.26 25.65 89.04C25.35 89.34 25.29 89.3701 24.9 89.1301C23.19 88.0501 21.72 86.79 20.49 85.35ZM22.53 77.1301H20.22C19.11 77.1301 18.27 77.13 17.58 77.19C17.52 77.19 17.46 77.2201 17.49 77.3101C18.06 79.1701 18.96 80.85 20.22 82.29C20.28 82.35 20.34 82.38 20.4 82.29C21.39 80.79 22.14 79.14 22.65 77.25C22.68 77.16 22.62 77.1301 22.53 77.1301Z" fill="black"/>
<path d="M4.89003 97.26C4.98003 97.26 5.13003 97.32 5.25003 97.38C6.39003 97.86 7.23003 98.43 7.86003 99.27C8.46003 100.08 8.70003 100.89 8.70003 101.67C8.70003 102.84 8.16003 103.92 7.59003 105.03C6.72003 106.71 5.88003 108.36 5.88003 110.31C5.88003 111.21 6.09003 111.99 6.24003 112.41C6.39003 112.83 6.57003 113.01 6.66003 113.01C6.84003 113.01 7.08003 112.53 7.41003 111.75C8.04003 110.22 8.61003 108.69 9.12003 107.07C9.21003 106.77 9.45003 106.89 9.39003 107.16C9.03003 108.99 8.79003 110.67 8.64003 112.02C8.52003 113.04 8.49003 113.85 8.49003 114.18C8.49003 114.93 8.67003 115.26 9.00003 115.77C9.27003 116.16 9.42003 116.49 9.42003 116.88C9.42003 117.66 8.76003 118.23 8.04003 118.23C7.32003 118.23 6.48003 117.63 5.76003 116.25C5.04003 114.87 4.53003 113.13 4.53003 110.61C4.53003 108.27 5.25003 105.93 5.67003 103.98C5.88003 103.02 6.09003 101.94 6.09003 101.04C6.09003 99.51 5.79003 98.49 4.86003 97.56C4.68003 97.38 4.71003 97.26 4.89003 97.26ZM17.85 114.6C20.85 114.6 22.08 113.94 23.19 113.94C24.42 113.94 24.96 114.45 24.96 115.32C24.96 116.1 24.27 116.61 23.4 116.85C22.65 117.06 21.45 117.18 19.74 117.18C15.99 117.18 13.98 116.28 12.96 113.37C12.84 113.07 13.02 112.98 13.23 113.19C14.19 114.27 15.75 114.6 17.85 114.6ZM23.28 100.53C23.28 101.28 22.71 101.7 22.02 101.94C21.27 102.21 20.22 102.33 19.11 102.33C16.38 102.33 14.34 101.28 13.32 99.6C13.14 99.33 13.26 99.21 13.53 99.39C14.19 99.81 15.39 100.02 16.5 100.02C18.09 100.02 19.5 99.72 20.37 99.45C20.76 99.33 21.21 99.15 21.57 99.15C22.59 99.15 23.28 99.84 23.28 100.53Z" fill="black"/>
<path d="M10.92 147.45C17.43 147.06 22.86 143.49 22.86 137.79C22.86 134.85 21.06 132.63 17.91 132.63C15.39 132.63 12.75 133.86 9.38997 136.32C8.66997 136.86 8.06997 137.34 7.46997 137.73C6.68997 138.24 5.99997 138.51 5.36997 138.51C4.55997 138.51 3.77997 138.18 3.02997 137.52C2.09997 136.71 1.46997 135.72 1.46997 134.64C1.46997 134.34 1.58997 134.28 1.79997 134.49C2.33997 135.09 3.11997 135.33 3.95997 135.33C4.79997 135.33 5.99997 135.06 7.73997 134.25C11.7 132.39 14.76 131.46 17.37 131.46C22.5 131.46 25.89 134.49 25.89 138.51C25.89 145.08 19.35 147.81 11.37 147.81H10.95C10.56 147.81 10.56 147.48 10.92 147.45Z" fill="black"/>
<path d="M7.67997 164.46C7.67997 165.09 7.43997 165.81 7.16997 166.65C6.80997 167.76 6.41997 169.47 6.41997 170.82C6.41997 172.8 7.13997 174.33 8.18997 175.35C8.45997 175.62 8.60997 175.74 8.75997 175.74C8.93997 175.74 9.02997 175.65 9.53997 174.87C10.35 173.61 11.13 172.35 11.94 171.03C12.06 170.82 12.27 170.88 12.18 171.15C11.73 172.5 11.43 173.55 11.22 174.33C11.07 174.93 10.95 175.53 10.95 175.92C10.95 177.06 11.76 177.51 11.76 178.32C11.76 179.04 11.28 179.73 10.47 179.73C9.53997 179.73 8.54997 179.16 7.43997 178.05C5.72997 176.34 4.52997 173.94 4.52997 170.4C4.52997 168.36 4.79997 166.38 4.79997 164.58C4.79997 163.62 4.52997 162.27 3.86997 161.61C3.77997 161.52 3.71997 161.43 3.71997 161.37C3.71997 161.31 3.77997 161.25 3.89997 161.25C3.95997 161.25 4.25997 161.31 4.37997 161.34C6.62997 161.85 7.67997 163.02 7.67997 164.46ZM22.83 167.07C24.3 168.03 25.08 169.65 25.08 170.97C25.08 172.14 24.48 173.13 23.46 173.13C22.74 173.13 22.2 172.77 21.96 171.39C21.72 170.04 21.3 168.96 20.52 168.09C19.65 167.13 18.48 166.44 16.5 166.35C16.26 166.35 16.2 166.05 16.5 165.99C16.95 165.9 17.76 165.81 18.3 165.81C20.16 165.81 21.57 166.23 22.83 167.07Z" fill="black"/>
<path d="M3.27002 195.06C3.27002 194.85 3.36002 194.55 3.48002 194.37C3.63002 194.13 3.69002 194.13 3.81002 194.37C4.05002 194.85 4.95002 195.21 5.52002 195.21C6.21002 195.21 7.41002 194.85 8.76002 194.43C11.13 193.65 13.8 192.75 16.26 192C17.4 191.64 18.54 191.31 19.68 191.01C20.7 190.77 21.39 190.62 22.26 190.62C23.88 190.62 24.84 191.52 24.84 192.39C24.84 193.2 24.42 193.56 23.43 193.56C22.83 193.56 22.23 193.44 21.12 193.44C19.83 193.44 18.78 193.71 17.82 194.31C14.52 196.38 13.32 199.44 13.32 204.45C13.32 206.7 13.77 208.2 14.64 208.86C15.33 209.4 16.29 209.7 17.58 209.7C18.54 209.7 19.41 209.49 20.25 209.49C21.15 209.49 21.75 210.06 21.75 210.75C21.75 211.89 20.91 212.67 18.39 212.67C16.17 212.67 14.49 212.19 13.35 211.08C12.21 209.97 11.58 208.38 11.58 205.14C11.58 198.87 13.98 195.09 18.24 193.2C18.33 193.17 18.33 193.11 18.21 193.14C15.27 193.68 12.66 194.79 9.36002 196.71C8.28002 197.34 7.17002 197.88 6.12002 197.88C4.47002 197.88 3.27002 196.02 3.27002 195.06Z" fill="black"/>
</g>
<defs>
<clipPath id="clip0_42_145">
<rect width="28.92" height="212.34" fill="white" transform="translate(0 0.330017)"/>
</clipPath>
</defs>
</svg>
