<svg width="258" height="68" viewBox="0 0 258 68" fill="none" xmlns="http://www.w3.org/2000/svg">
<g clip-path="url(#clip0_71_114)">
<path d="M56.9592 9.94857C56.799 10.9911 61.0109 14.6018 61.543 15.2375C62.0751 15.8732 63.4598 15.9813 64.2099 15.1295C66.5562 12.485 67.1973 7.04981 64.6394 5.39701C62.5046 4.02391 57.2798 7.83171 56.9592 9.94857Z" fill="white"/>
<path d="M13.8666 15.9368C14.4436 15.2503 19.0209 11.328 18.8478 10.1901C18.5016 7.89529 12.8216 3.75694 10.5009 5.25081C7.72504 7.04347 8.41741 12.949 10.9625 15.8224C11.7703 16.7441 13.2832 16.6297 13.8602 15.9368H13.8666Z" fill="white"/>
<path d="M37.6569 62.0245C34.6181 64.8787 31.5345 65.7941 28.9318 65.8641C34.2399 68.445 37.6569 66.1183 37.6569 66.1183C37.6569 66.1183 41.0802 68.445 46.3884 65.8577C43.8048 65.7687 40.7533 64.847 37.7466 62.0245H37.6569Z" fill="white"/>
<path d="M24.6304 65.2475C23.1815 64.5291 21.2903 62.8 21.2903 62.8C17.5144 60.7849 14.3218 55.3179 14.3218 55.3179L10.8407 53.8749C7.35965 52.4383 6.19288 41.5361 6.19288 37.4677C6.19288 36.3171 7.06475 31.7083 6.19288 32.8589C5.32101 34.0095 1.83995 44.9498 0.384696 46.9649C-1.07056 48.9801 1.83354 50.9952 4.73763 49.5586C4.73763 50.7092 3.86576 55.3179 3.57728 56.4685C3.28879 57.6191 9.26366 56.2715 9.38546 58.1976C9.67395 62.8064 10.8343 64.5291 11.1292 65.6861C11.4177 66.8367 14.9052 63.6709 15.1937 61.6558C15.7706 63.6709 19.5466 67.7012 20.4185 67.9873C20.8544 68.1335 21.0724 67.2562 21.1813 66.1438C23.0597 66.7985 25.9061 66.9829 26.3677 66.9829C26.9511 66.9829 26.0792 65.9721 24.6239 65.2538L24.6304 65.2475Z" fill="white"/>
<path d="M9.53289 2.37113C12.5844 1.22053 19.5466 6.83369 20.7069 7.98429C21.8673 9.13489 27.964 6.54763 27.964 6.54763C26.2202 6.83369 14.0269 -4.39264 5.60948 1.93886C4.44913 4.24006 5.32099 9.99944 6.48135 12.0146C5.89797 5.96915 6.73137 3.42638 9.53289 2.37113Z" fill="white"/>
<path d="M74.6146 46.9649C73.1658 44.9498 69.6783 34.0095 68.8064 32.8589C67.9346 31.7083 68.8064 36.3107 68.8064 37.4677C68.8064 41.5361 67.6461 52.4382 64.1586 53.8749L60.6775 55.3179C60.6775 55.3179 57.485 60.7849 53.709 62.8C53.709 62.8 51.8242 64.5291 50.369 65.2474C48.9201 65.9658 48.0483 66.9765 48.6252 66.9765C49.0868 66.9765 51.9396 66.7922 53.8116 66.1374C53.9206 67.2562 54.1385 68.1271 54.5745 67.9809C55.4463 67.6948 59.2223 63.6582 59.7993 61.6494C60.0877 63.6646 63.5752 66.8303 63.8637 65.6797C64.1522 64.5291 65.319 62.8 65.6074 58.1912C65.7293 56.2651 71.7041 57.6128 71.4156 56.4622C71.1271 55.3116 70.2553 50.7028 70.2553 49.5522C73.1594 50.9889 76.0635 48.9737 74.6082 46.9586L74.6146 46.9649Z" fill="white"/>
<path d="M53.7089 7.98428C54.8693 6.83367 61.8378 1.22051 64.8894 2.37111C67.6845 3.42636 68.5179 5.96913 67.9345 12.0146C69.0949 9.99942 69.9667 4.24005 68.8064 1.93884C60.389 -4.39265 48.1956 6.83367 46.4519 6.54761C46.4519 6.54761 52.5486 9.14124 53.7089 7.98428Z" fill="white"/>
<path d="M66.7493 42.2227C67.4353 34.8359 66.1723 23.9147 61.5437 18.9055C57.5242 14.5446 54.5495 10.3872 48.1131 8.29578C47.8823 8.23857 47.5361 8.14322 47.0617 7.99701C46.8502 7.93344 46.645 7.87623 46.4527 7.81901C45.3436 7.54567 44.1448 7.32953 42.8306 7.17061C40.247 7.1134 40.5227 8.56913 40.5227 9.05226C40.5227 9.71338 40.9971 10.0312 43.164 10.5843C50.3569 12.1671 54.2226 16.795 55.1522 18.7783C56.2356 21.0796 54.6585 22.1666 53.0558 19.9226C51.4595 17.6786 48.1836 15.2693 45.5231 14.2522C42.7665 13.197 41.8561 12.8855 40.5163 13.197C40.1252 13.286 39.4136 13.928 39.4136 14.7226C39.4136 15.5172 39.1636 17.9837 39.1636 18.7783C39.1636 20.9206 36.1698 20.749 36.2339 18.7783C36.2595 17.9837 35.9839 15.5172 35.9839 14.7226C35.9839 13.928 35.2723 13.2923 34.8812 13.197C33.5413 12.8855 32.631 13.197 29.8744 14.2522C27.2139 15.2693 23.9444 17.6722 22.3481 19.9226C20.7454 22.1666 19.1683 21.0796 20.2517 18.7783C21.1877 16.795 25.047 12.1735 32.2399 10.5843C34.4068 10.0312 34.8812 9.71338 34.8812 9.05226C34.8812 8.56913 35.1504 7.1134 32.5733 7.17061C31.2591 7.32953 30.0603 7.54567 28.9512 7.81901C28.7525 7.87623 28.5537 7.93344 28.3422 7.99701C27.8678 8.14322 27.5216 8.23857 27.2908 8.29578C20.8544 10.3936 17.8797 14.551 13.8602 18.9055C9.03283 24.1372 7.85965 35.8149 8.75717 43.1762C8.73152 43.4368 8.7187 43.7038 8.7187 43.9708C8.7187 49.6158 14.0461 55.159 22.0788 58.4265C22.5724 58.9096 22.9763 59.2783 23.1815 59.4563C24.2457 60.378 26.6433 61.5223 29.1756 61.5223C30.0923 61.5223 31.1822 61.3316 32.2015 61.0328C34.0221 61.2617 35.9005 61.3888 37.8238 61.3888C39.747 61.3888 41.51 61.268 43.2793 61.0519C44.2794 61.3379 45.3372 61.5223 46.2347 61.5223C48.767 61.5223 51.1646 60.378 52.2288 59.4563C52.4083 59.2974 52.7481 58.9922 53.1584 58.5917C61.4219 55.3497 66.9288 49.7111 66.9288 43.9645C66.9288 43.3733 66.8647 42.7948 66.7557 42.2163L66.7493 42.2227ZM21.2839 51.3512C20.3158 51.9233 19.3863 52.2539 18.4952 52.3556C17.6041 52.451 16.8027 52.3175 16.0783 51.9424C15.3539 51.5673 14.7961 50.9889 14.3987 50.207C14.1358 49.7175 14.0717 49.3679 14.1999 49.1517C14.3282 48.9419 14.7256 48.783 15.3859 48.6877C16.3411 48.5224 17.2835 48.2173 18.2259 47.7596C19.1619 47.3019 20.0081 46.7297 20.771 46.0495C21.5275 45.363 22.1557 44.5811 22.6494 43.6975C23.143 42.8139 23.4379 41.873 23.5405 40.8559C23.6687 39.3875 23.6495 38.0652 23.4635 36.8892C23.284 35.7132 23.0084 34.7851 22.6494 34.0985C22.3545 33.5773 22.1365 33.145 22.0083 32.8017C21.8737 32.4584 21.8288 32.147 21.8608 31.8736C21.8929 31.5939 22.0275 31.3269 22.2583 31.0663C22.4891 30.8056 22.8161 30.4814 23.2456 30.0873C23.6046 29.7631 24.079 29.6042 24.6495 29.6233C25.2265 29.6423 25.7137 29.7758 26.1048 30.0365C26.3676 30.2017 26.5792 30.3034 26.7459 30.3543C26.9126 30.4052 27.1241 30.4306 27.387 30.4306C28.4704 30.367 29.6628 30.3098 30.9642 30.2589C32.2656 30.2081 33.4067 30.17 34.394 30.1382C34.7209 30.1382 34.9389 30.0873 35.0351 29.992C35.1312 29.8966 35.1825 29.6678 35.1825 29.3054C35.1825 28.9431 35.1761 28.5871 35.1569 28.2311C35.1376 27.8751 35.1184 27.5128 35.0799 27.1568C34.9132 25.3959 35.1312 24.2199 35.721 23.635C36.3108 23.0502 37.0545 22.9358 37.9456 23.2918C38.5354 23.5524 38.9649 23.8448 39.2277 24.1754C39.4906 24.4996 39.638 24.8746 39.6701 25.3005C39.7021 25.6248 39.779 25.8282 39.8944 25.9108C40.0098 25.9935 40.2342 26.0316 40.5612 26.0316C41.1189 25.9998 41.7215 25.9807 42.3626 25.9807C43.0037 25.9807 43.4588 25.949 43.7217 25.8854C44.6448 25.8218 45.5424 25.8091 46.4142 25.86C47.2861 25.9108 47.9336 25.9807 48.3631 26.0824C48.985 26.2159 49.376 26.3685 49.5235 26.5465C49.6709 26.7245 49.7094 27.0614 49.6453 27.5509C49.5812 27.8751 49.4209 28.0976 49.1773 28.212C48.9337 28.3264 48.4465 28.3646 47.722 28.3328C46.7668 28.2692 45.6129 28.2692 44.2666 28.3328C42.9139 28.3964 41.6189 28.479 40.3688 28.5744C39.8432 28.6061 39.5611 28.8859 39.529 29.4071C39.497 29.6042 39.5354 29.744 39.6508 29.8203C39.7662 29.903 40.0034 29.9411 40.3688 29.9411H43.0614C43.9653 29.9411 44.7474 29.9729 45.4077 30.0365C46.5617 30.1 47.4656 30.1445 48.1195 30.1572C48.7798 30.1763 49.2863 30.1763 49.6517 30.1572C50.0107 30.1382 50.2735 30.1064 50.4402 30.0619C50.6069 30.011 50.7543 29.9411 50.8826 29.8394C51.1454 29.6741 51.5621 29.6868 52.1391 29.8648C52.7161 30.0428 53.2353 30.4751 53.6905 31.1616C53.8187 31.3269 53.9021 31.6829 53.9341 32.236C53.9662 32.789 53.9341 33.3929 53.8379 34.0477C53.7738 34.3719 53.729 34.8169 53.7161 35.3699C53.6969 35.923 53.6905 36.3489 53.6905 36.6413C53.6905 37.099 53.5366 37.5313 53.2225 37.9381C52.9084 38.345 52.4724 38.5674 51.9147 38.5992C50.7608 38.6628 50.1838 38.1415 50.1838 37.0354C50.1838 36.3489 50.1646 35.7768 50.1325 35.3254C50.1004 34.8677 50.0363 34.2829 49.9338 33.5645C49.8697 33.1704 49.7286 32.9034 49.5171 32.7572C49.3055 32.611 48.8696 32.5029 48.2093 32.4394C46.5937 32.2423 43.9332 32.1978 40.215 32.2932C39.888 32.2932 39.6701 32.344 39.5739 32.4394C39.4777 32.5347 39.3944 32.8017 39.3239 33.2213C39.2598 33.5836 39.2726 33.8188 39.3752 33.9333C39.4713 34.0477 39.7213 34.0858 40.1124 34.054C41.1638 33.9587 42.0869 33.8824 42.8755 33.8315C43.664 33.7807 44.241 33.7425 44.6 33.7108C45.3885 33.6472 45.9142 33.6281 46.177 33.6599C46.4399 33.6917 46.6899 33.8252 46.9143 34.054C47.1771 34.3147 47.2605 34.5689 47.1579 34.8105C47.0617 35.0521 46.6963 35.211 46.0745 35.2746C44.7602 35.4398 43.5807 35.5733 42.5421 35.6878C41.5036 35.8022 40.5612 35.942 39.7021 36.101C39.3752 36.1645 39.1764 36.2535 39.1123 36.3679C39.0482 36.4824 39.061 36.6731 39.1636 36.9337C39.3303 37.455 39.9842 37.7156 41.1381 37.7156C41.8946 37.7156 42.7024 37.6266 43.555 37.4486C44.4076 37.2706 45.2987 37.0036 46.2219 36.6413C46.7476 36.4124 47.1579 36.3298 47.4592 36.3934C47.7541 36.4569 47.9528 36.5968 48.049 36.8066C48.1451 37.0164 48.1451 37.2961 48.049 37.6393C47.9528 37.9826 47.7541 38.3195 47.4592 38.6437C47.2605 38.8726 46.9079 39.1014 46.395 39.3303C45.8821 39.5591 45.2603 39.7562 44.5166 39.9151C43.7794 40.0804 42.9588 40.2012 42.0741 40.2838C41.1894 40.3665 40.2791 40.3919 39.3623 40.3601C37.9456 40.2965 36.9455 40.0232 36.3493 39.5528C35.7595 39.0824 35.3748 38.434 35.2146 37.6203C35.1184 37.2961 34.9902 37.099 34.8427 37.0354C34.6953 36.9719 34.4388 36.9719 34.0798 37.0354C33.6503 37.1308 33.2977 37.2261 33.0156 37.3024C32.7336 37.3851 32.4643 37.4741 32.2015 37.5694C31.2783 37.9318 30.6052 38.167 30.1757 38.2814C29.7461 38.3958 29.3551 38.4212 28.9897 38.3577C28.2652 38.2242 27.855 37.8745 27.7588 37.3024C27.6626 36.7303 27.9255 36.1391 28.5473 35.5161C28.8422 35.2237 29.2397 35.0012 29.7333 34.855C30.2269 34.7088 31.0796 34.6007 32.2976 34.5372C32.6566 34.5054 33.0221 34.4863 33.3811 34.4863C33.7401 34.4863 34.0863 34.4672 34.4196 34.4354C34.6504 34.4354 34.8235 34.3719 34.9389 34.2384C35.0543 34.1112 35.112 33.8125 35.112 33.3548C35.112 32.8017 34.8684 32.522 34.3747 32.522C33.2913 32.5538 32.1438 32.6047 30.945 32.6682C29.7461 32.7318 28.5858 32.8144 27.4639 32.9098C27.169 32.9416 26.9639 32.9988 26.8485 33.0814C26.7331 33.1641 26.6946 33.4183 26.7267 33.8379C26.7908 34.8169 26.842 35.8213 26.8741 36.8511C26.9062 37.8809 26.9062 38.8344 26.8741 39.7117C26.842 40.9513 26.7779 42.0065 26.6754 42.8711C26.5792 43.7356 26.4189 44.5112 26.2074 45.1977C25.9958 45.8843 25.7137 46.5136 25.3676 47.0794C25.0214 47.6515 24.5854 48.249 24.0598 48.8657C23.1687 49.94 22.2391 50.7664 21.2711 51.3385L21.2839 51.3512ZM62.5246 45.5982C62.4605 46.9713 62.0566 48.3063 61.3129 49.6094C60.5757 50.9126 59.659 51.9424 58.5755 52.6925C57.6524 53.3473 56.5433 53.7287 55.2419 53.8431C53.9405 53.9576 52.5686 53.8495 51.1198 53.5253C49.9017 53.2329 48.8632 52.9786 48.0105 52.7688C47.1515 52.559 46.4206 52.3556 45.8116 52.1585C45.2026 51.9615 44.6705 51.7771 44.2089 51.5928C43.7473 51.4148 43.305 51.2114 42.8755 50.9825C42.2857 50.6901 41.792 50.3786 41.3946 50.0544C41.0035 49.7302 40.6958 49.3234 40.4842 48.8339C40.2727 48.3444 40.1445 47.7341 40.1124 46.9967C40.0804 46.2593 40.1124 45.3249 40.2086 44.1806C40.2406 43.8882 40.1765 43.6403 40.0098 43.4496C39.8432 43.2525 39.6316 43.1571 39.3688 43.1571C38.6123 43.1254 37.7725 43.1254 36.8493 43.1571C36.5865 43.1889 36.4134 43.2525 36.33 43.3542C36.2467 43.4496 36.2082 43.6784 36.2082 44.0408C36.2082 45.5728 35.8877 46.8823 35.2466 47.9566C34.6055 49.0309 33.9516 49.8001 33.2977 50.2578C31.3552 51.561 29.5859 52.2412 27.9896 52.2857C26.3933 52.3365 25.2329 51.8725 24.5085 50.8935C24.111 50.3405 24.0085 49.8637 24.188 49.4759C24.3675 49.0818 24.7072 48.9038 25.2009 48.9356C25.5599 48.9356 25.9958 48.8847 26.5087 48.7894C27.0151 48.694 27.5344 48.5669 28.0601 48.4207C28.5858 48.2745 29.0794 48.1028 29.541 47.9058C30.0026 47.7087 30.3616 47.5116 30.6244 47.3209C31.7078 46.4755 32.3874 45.6681 32.6502 44.8989C32.9131 44.1297 32.9131 43.1317 32.6502 41.8921C32.5156 41.3391 32.5733 40.8814 32.8233 40.519C33.0669 40.163 33.4388 39.966 33.9324 39.9342C34.7209 39.8706 35.3171 40.0677 35.7082 40.519C35.939 40.7797 36.1121 40.9449 36.2275 41.0085C36.3429 41.0721 36.5159 41.1039 36.7467 41.1039H39.0931C39.6701 41.1039 40.1124 41.0975 40.4265 41.0784C40.7407 41.0594 40.9715 41.0276 41.1189 40.9831C41.2664 40.9322 41.3882 40.875 41.4907 40.8114C41.6895 40.7161 41.9267 40.6462 42.2087 40.6144C42.4908 40.5826 42.7601 40.5826 43.0229 40.6144C43.2858 40.6462 43.523 40.7224 43.7409 40.8369C43.9525 40.9513 44.0935 41.1229 44.1576 41.3518C44.3884 42.2036 44.3884 42.9537 44.1576 43.6021C43.8948 44.2569 43.9012 44.9816 44.1833 45.7826C44.4653 46.5835 44.9654 47.1111 45.6898 47.3718C46.8053 47.7977 48.049 48.0838 49.4145 48.23C50.78 48.3762 52.1519 48.3635 53.5366 48.1791C54.9214 48.0011 56.2612 47.6578 57.5562 47.1493C58.8576 46.6407 59.9987 45.9478 60.986 45.0706C61.6078 44.5175 62.0374 44.2823 62.2682 44.3586C62.4989 44.4412 62.5823 44.8544 62.5118 45.6046L62.5246 45.5982Z" fill="white"/>
</g>
<g clip-path="url(#clip1_71_114)">
<path d="M91.0263 41.0933L91 41.0775C91 41.0512 91.0841 40.9512 91.289 40.7564C92.0508 40.0194 93.4064 38.2876 93.9896 36.7873L94.1578 36.3557V36.0767C93.6166 36.0925 92.9125 36.1188 92.219 36.203H92.2032C92.0246 36.203 91.62 35.6871 91.62 35.5345C92.4659 35.6608 93.4747 35.7029 94.1578 35.7134C94.1578 34.6712 94.1158 33.9921 94.0632 33.6026C92.4291 33.6868 92.3293 33.6868 92.1664 33.6868C91.9563 33.6868 91.8617 33.671 91.8617 33.6447C91.8617 33.6026 91.9983 33.5605 92.2085 33.5078C93.4852 33.2025 94.8251 32.7024 95.5449 32.176C95.7393 32.0391 95.8654 31.8549 95.9179 31.7865C95.9442 31.7601 95.96 31.7444 95.9757 31.7444C96.0703 31.7444 97.179 32.7445 97.179 33.213C97.179 33.3236 97.1212 33.392 96.9846 33.392C96.9162 33.392 96.8164 33.3762 96.6956 33.3236C96.6693 33.3078 96.6273 33.2972 96.5695 33.2972H96.5432C96.2962 33.3657 96.002 33.4236 95.671 33.4657C96.002 33.5499 96.0703 33.6605 96.0703 33.7131C96.0703 33.8079 95.8759 33.9079 95.7498 33.9763C95.5974 34.0605 95.5291 34.1132 95.4871 35.724H95.6132C95.6552 35.724 95.7813 35.6819 95.8234 35.6134C96.3751 34.6817 96.559 34.6817 96.6115 34.6817C96.8742 34.6817 97.8305 35.5713 97.8305 35.9187C97.8305 36.003 97.7464 36.0714 97.4837 36.0714H95.4766C95.4608 36.4873 95.4608 36.9452 95.4608 37.4295H95.5449C97.1947 37.5243 97.51 38.1086 97.51 38.556C97.51 39.0035 97.1212 39.3772 96.7323 39.3772C96.4696 39.3772 96.2174 39.2246 96.0546 38.8771C95.8864 38.5297 95.692 38.0191 95.4608 37.7401C95.4766 39.672 95.5449 41.8619 95.6132 43.2621V43.3042C95.6132 43.6938 95.1561 43.9727 94.6569 43.9727C94.2839 43.9727 93.9371 43.7938 93.9371 43.3621V43.32C93.9949 42.0145 94.0632 40.3774 94.1052 38.8245C92.5237 40.6669 91.1103 41.0933 91.0263 41.0933ZM99.37 41.9145C99.37 42.3988 99.3857 42.7462 99.3857 42.8726V42.8884C99.3857 43.2884 98.9023 43.5253 98.4557 43.5253C98.0827 43.5253 97.7359 43.3569 97.7359 42.941V42.8989C97.8462 40.9407 97.8883 38.9982 97.8883 37.498C97.8883 35.7924 97.8462 34.0026 97.7096 33.2499C97.7096 33.2236 97.6939 33.2078 97.6939 33.192C97.6939 33.1499 97.7201 33.1341 97.7517 33.1341C97.8883 33.1341 98.9444 33.5078 99.5381 33.9131L99.6064 33.971H101.367C101.409 33.971 101.461 33.971 101.535 33.8763C101.976 33.3236 102.06 33.2657 102.17 33.2657C102.449 33.2657 103.678 34.0026 103.678 34.2658C103.678 34.3501 103.621 34.4448 103.431 34.5869C103.085 34.8238 103.127 34.8501 103.111 35.1028C103.095 35.2555 103.095 35.6187 103.095 36.1451C103.095 37.6875 103.137 40.5458 103.232 42.6988V42.7252C103.232 43.141 102.759 43.3779 102.318 43.3779C101.945 43.3779 101.598 43.2095 101.598 42.8094V41.9198H99.3647L99.37 41.9145ZM101.598 41.5513C101.614 40.151 101.624 37.9559 101.624 36.3188C101.624 35.5976 101.624 34.9712 101.608 34.5975C101.608 34.3501 101.498 34.3185 101.372 34.3185H99.5013L99.4173 34.3764C99.3752 34.4027 99.3752 34.4711 99.3752 34.5132C99.3595 34.9554 99.3489 36.5399 99.3489 38.2191C99.3489 39.4141 99.3647 40.6459 99.3647 41.5513H101.598Z" fill="white"/>
<path d="M103.941 44.0359C103.924 44.0359 103.915 44.0306 103.915 44.0201C103.915 43.978 103.957 43.8938 104.083 43.7569C105.58 41.9513 105.996 38.6771 105.996 36.0556C105.996 35.2502 105.911 32.7129 105.622 31.7128C105.607 31.6443 105.596 31.6022 105.596 31.5759C105.596 31.5601 105.612 31.5496 105.638 31.5496C105.833 31.5496 106.799 31.7707 107.703 32.3287L107.771 32.3866H113.215C113.257 32.3866 113.325 32.3866 113.393 32.3023C113.504 32.176 113.64 31.8707 113.824 31.7338C113.908 31.6654 113.961 31.6075 114.061 31.6075C114.308 31.6075 115.737 32.3445 115.737 32.6498C115.737 32.734 115.669 32.8445 115.458 32.9709C115.085 33.2183 115.138 33.2762 115.112 33.4552C115.043 33.9289 114.917 35.1344 114.917 36.4925C114.917 40.8775 116.11 41.725 116.194 41.725C116.514 41.725 117.092 39.9773 117.108 39.9194C117.166 39.7668 117.203 39.7089 117.219 39.7089C117.245 39.7089 117.245 39.8036 117.245 39.8352C117.245 40.2669 117.035 41.625 117.035 42.1514C117.035 42.2461 117.05 42.3198 117.061 42.3462C117.155 42.5567 117.198 42.7357 117.198 42.9147C117.198 43.4411 116.767 43.7885 116.378 43.7885C116.294 43.7885 116.21 43.7622 116.131 43.7306C113.803 42.7304 113.441 38.9824 113.441 36.0293C113.441 34.7817 113.509 33.671 113.509 32.9761C113.509 32.7656 113.383 32.7287 113.231 32.7287H107.856C107.813 32.7866 107.745 32.8551 107.661 32.9077C107.467 33.0446 107.451 33.1025 107.451 33.3078C107.451 33.6394 107.451 33.6552 107.509 34.5975C107.525 34.5975 107.535 34.5817 107.551 34.5817C108.339 34.4975 111.029 33.7605 111.665 32.9972C111.691 32.9551 111.707 32.9288 111.733 32.9288C111.901 32.9288 112.926 34.0658 112.926 34.2606C112.926 34.3553 112.858 34.3869 112.731 34.3869C112.637 34.3869 112.495 34.3711 112.358 34.329H112.264C111.875 34.4238 111.444 34.508 110.987 34.5764C111.444 34.6606 111.539 34.787 111.539 34.8817C111.539 34.9765 111.402 35.0765 111.218 35.1449C111.066 35.2028 111.066 35.7556 111.066 36.2135H111.539C111.581 36.2135 111.649 36.2135 111.717 36.1188C111.896 35.8398 112.09 35.6608 112.132 35.6608C112.369 35.6608 113.378 36.3978 113.378 36.6189C113.378 36.7031 113.32 36.7873 113.131 36.8979C112.978 36.9821 112.884 37.0347 112.884 37.5085C112.884 38.0349 113.01 39.3404 113.02 39.6299V39.6562C113.02 40.0721 112.521 40.2089 112.274 40.2089C111.985 40.2089 111.723 40.0721 111.723 39.751V39.3614H111.071C111.071 40.1247 111.087 40.8617 111.097 41.3881C111.402 41.3618 111.691 41.3197 111.943 41.2933C111.817 41.0459 111.681 40.8196 111.47 40.6248C111.386 40.5406 111.334 40.4879 111.334 40.4564C111.334 40.4406 111.35 40.4406 111.376 40.4406C111.57 40.4406 113.882 40.8143 113.882 42.1461C113.882 42.6462 113.493 43.0357 113.078 43.0357C112.815 43.0357 112.553 42.8673 112.385 42.4514C112.29 42.2146 112.206 41.9513 112.106 41.6881C111.234 42.0619 109.416 42.662 108.255 43.0042C108.102 43.0621 108.045 43.3253 107.908 43.3253C107.687 43.3253 106.841 41.7987 106.841 41.5355C106.841 41.4934 106.857 41.4776 106.899 41.4776C106.957 41.4776 107.025 41.4934 107.136 41.5039C107.525 41.546 107.992 41.5618 108.339 41.5618C108.602 41.5618 108.864 41.546 109.794 41.4934C109.81 40.967 109.81 40.1774 109.81 39.3562H109.174C109.174 39.6036 109.19 39.7984 109.19 39.8826V39.9247C109.19 40.3563 108.775 40.5195 108.497 40.5195C108.192 40.5195 107.913 40.3405 107.913 39.951V39.8931C107.94 39.4509 107.982 37.8822 107.982 37.0768V36.8294C107.982 36.661 107.982 36.124 107.887 35.6661C107.887 35.6398 107.871 35.624 107.871 35.6082C107.871 35.5661 107.898 35.5503 107.929 35.5503C108.039 35.5503 108.927 35.8714 109.316 36.1451C109.342 36.1609 109.358 36.1714 109.374 36.203H109.789V36.1346C109.773 35.7187 109.773 35.1502 109.721 34.7343C109.195 34.7764 108.68 34.8028 108.197 34.8028C107.976 34.8028 107.766 34.8028 107.572 34.787H107.514C107.514 34.9817 107.53 35.187 107.53 35.3976C107.53 42.4883 103.999 44.0149 103.941 44.0149V44.0359ZM109.831 36.5715H109.332C109.306 36.6136 109.248 36.6399 109.206 36.6662C109.19 36.682 109.18 36.6926 109.18 36.8031C109.164 36.9137 109.153 37.3558 109.153 37.8875C109.153 38.2612 109.169 38.6666 109.169 39.0245H109.863C109.863 38.1086 109.847 37.1769 109.836 36.5662L109.831 36.5715ZM111.034 39.0245H111.738V36.8031C111.738 36.6083 111.67 36.5662 111.502 36.5662H111.029V39.0245H111.034Z" fill="white"/>
<path d="M165.105 36.0398C165.105 36.103 165.105 36.2399 165.074 36.303C164.88 37.1611 164.811 37.619 164.711 38.277C164.449 40.0879 163.892 41.8303 163.366 43.2147C162.415 45.7152 161.165 47.2628 160.014 48.5472C159.82 48.7788 159.62 48.8736 159.457 48.8736C159.326 48.8736 159.226 48.842 159.126 48.7736C158.995 48.6735 158.895 48.5104 158.895 48.3472C158.895 48.184 158.926 48.0208 159.026 47.8524C159.357 47.2259 159.715 46.3047 160.014 45.3519C160.114 45.0571 160.377 44.7939 160.476 44.4623C160.508 44.4307 160.508 44.3623 160.508 44.2991C160.508 44.1675 160.476 44.0043 160.476 43.8727V43.7095L160.671 42.8515C161.096 40.9775 161.427 38.7034 161.59 34.8238C161.653 33.2446 161.69 31.797 161.69 30.481C161.69 28.7702 161.59 27.291 161.59 25.975V25.8434C161.59 25.1853 161.822 24.8537 162.41 24.8537C163.035 24.8537 163.724 24.8537 164.38 24.9853C164.874 25.0853 165.037 25.2801 165.105 25.6433C165.205 25.9065 165.468 25.9697 165.794 25.9697H171.342C171.736 25.8697 171.836 25.6749 171.836 25.1485V23.0429L171.636 19.7213V19.6581C171.636 19.2633 171.999 18.9001 172.556 18.9001H172.619L174.032 18.9632C175.115 19.0264 175.215 19.1633 175.215 19.9845V21.7269C175.314 22.0217 175.409 22.0901 175.84 22.0901L179.355 22.0585C179.849 22.0585 180.143 21.9269 180.537 21.4689C180.863 21.1057 181.325 20.6793 181.719 20.4161C181.982 20.2529 182.213 20.1845 182.444 20.1845C182.707 20.1845 183.001 20.2477 183.264 20.4477C183.821 20.8109 184.315 21.1741 184.677 21.7005C184.84 21.9322 184.909 22.1638 184.909 22.3586C184.909 22.8218 184.515 23.1797 183.858 23.1797L178.703 23.1482C178.64 23.1482 178.572 23.1482 178.509 23.1166L178.246 23.0534C178.215 23.0218 178.083 23.0218 177.952 23.0218C177.852 23.0218 177.721 23.0218 177.658 23.0534L177.395 23.1166C177.332 23.1482 177.264 23.1482 177.201 23.1482H175.856C175.43 23.1482 175.299 23.1797 175.23 23.4429V25.2222C175.23 25.717 175.33 25.8802 175.787 25.9486H181.336L183.206 25.9802C184.063 25.9802 184.683 25.8802 185.602 25.7486C185.733 25.717 185.833 25.717 185.928 25.717C186.879 25.717 187.504 26.3434 187.504 26.933C187.504 27.2278 187.373 27.491 187.11 27.691C186.585 28.1174 185.896 28.6122 185.334 28.8754C184.578 29.2387 183.958 29.5335 183.364 29.6335C183.169 29.6651 183.001 29.6966 182.87 29.6966C182.77 29.6966 182.676 29.6651 182.576 29.5966C182.476 29.4966 182.444 29.3966 182.444 29.3018C182.444 29.1387 182.576 28.9755 182.707 28.807C183.001 28.4754 183.264 28.049 183.464 27.6858C183.527 27.5858 183.564 27.4857 183.564 27.391C183.564 27.2594 183.432 27.1594 183.201 27.1594H182.907L182.45 27.0962C182.387 27.0646 182.287 27.0646 182.155 27.0646C182.056 27.0646 181.961 27.0646 181.893 27.0962L181.693 27.1278C181.63 27.1594 181.562 27.1594 181.499 27.1594H165.899C165.536 27.1594 165.274 27.3226 165.211 27.7174L165.274 28.5385V28.7386L165.142 29.7914L165.111 31.5706C165.079 32.8235 165.111 34.0395 165.011 35.2871L165.111 36.0451L165.105 36.0398ZM170.885 42.1303L170.654 42.5251C170.591 42.5883 170.554 42.6567 170.523 42.6883C169.109 43.9727 166.682 46.5048 164.937 48.7788C164.806 48.9789 164.575 49.042 164.38 49.042C164.281 49.042 164.186 49.0104 164.086 48.9789C163.986 48.9473 163.955 48.8157 163.955 48.6525C163.955 48.5525 163.986 48.4209 164.018 48.2577C164.643 46.5469 165.888 44.1465 167.239 42.0724C168.358 40.33 169.015 39.2404 169.766 38.3876C170.192 37.9244 170.554 37.698 170.917 37.698C171.048 37.698 171.211 37.7296 171.342 37.798C172.13 38.0928 172.819 38.556 173.344 39.0824C173.444 39.1509 173.444 39.2825 173.444 39.3772C173.444 39.5773 173.381 39.8036 173.313 39.9352C173.281 39.9984 173.249 40.0668 173.213 40.0984L172.619 40.7248C172.587 40.788 172.519 40.8248 172.425 40.8248C172.23 40.8564 172.062 40.988 171.931 41.3513C171.799 41.6776 171.505 41.9092 171.337 41.9408L170.88 42.1409L170.885 42.1303ZM178.341 31.4969C178.146 31.4969 177.784 31.3338 177.653 31.3338C177.521 31.3653 177.39 31.5654 177.227 31.5654C176.833 31.597 175.75 31.6654 174.437 31.8286C174.074 31.8602 173.912 32.0286 173.812 32.2234C173.812 32.6182 173.812 32.913 173.843 33.013C173.943 33.6394 174.437 33.771 175.125 33.8658C175.719 33.9289 177.064 33.9658 178.346 33.9658C179.628 33.9658 180.873 33.9342 181.267 33.9342C182.056 33.9026 182.912 33.771 183.469 33.6078C184.194 33.4078 184.782 32.9182 185.602 31.8654C185.797 31.6338 185.965 31.4706 186.196 31.4706C186.259 31.4706 186.359 31.5022 186.427 31.5338C186.621 31.6338 186.69 31.7654 186.69 31.9602C186.69 32.0602 186.658 32.1918 186.627 32.355C186.301 33.8342 185.544 35.3818 184.688 36.0714C183.931 36.6978 182.98 36.761 181.336 36.861C181.073 36.861 180.485 36.8926 179.759 36.8926C179.034 36.8926 178.183 36.861 177.327 36.861C177.001 36.861 176.67 36.661 176.344 36.661C175.982 36.661 175.656 36.8242 175.356 36.8242C174.831 36.8242 174.374 36.7926 174.111 36.7926C171.941 36.6926 170.628 36.003 170.365 34.3553C170.333 34.0605 170.302 33.4025 170.265 32.6445C170.202 32.4445 170.102 32.3497 169.839 32.3497C168.852 32.4813 168.032 32.5813 167.475 32.6761C167.244 32.7077 167.018 32.7393 166.818 32.7393C166.13 32.7393 165.536 32.4129 165.536 31.6549C165.536 31.1916 165.831 30.7652 166.225 30.6652C166.387 30.6336 166.519 30.6021 166.65 30.6021C167.076 30.6021 167.37 30.8021 167.501 31.0653C167.633 31.2969 167.796 31.3601 168.027 31.3601C168.158 31.3601 168.258 31.3601 168.389 31.3285L169.671 31.1653C170.034 31.1337 170.197 31.0021 170.26 30.7705C170.26 29.9125 170.291 29.0913 170.323 28.6649C170.386 27.9384 170.717 27.8437 171.311 27.8437C171.805 27.8437 172.461 27.8753 173.118 27.9437C173.743 28.0069 173.875 28.3069 173.875 28.8018C173.875 28.9018 173.875 29.065 173.843 29.1966L173.812 30.5126C173.843 30.6442 173.912 30.7126 174.011 30.7442L177.101 30.4494C177.463 30.4178 177.626 30.3494 177.889 30.023C178.083 29.7914 178.283 29.5966 178.677 29.2334C179.003 28.9386 179.302 28.807 179.628 28.807C179.954 28.807 180.285 28.9386 180.71 29.2018C181.036 29.4019 181.467 29.7282 181.761 30.0914C181.956 30.3231 182.056 30.5547 182.056 30.7179C182.056 31.0811 181.693 31.3074 181.236 31.3443L178.346 31.5075L178.341 31.4969ZM178.078 37.9507H178.178C178.803 37.9507 179.097 38.2455 179.16 39.1351C179.26 40.4827 179.523 41.7039 179.849 42.6252C180.175 43.5148 180.7 44.4044 181.325 44.8308C181.982 45.294 182.539 45.4572 183.164 45.4572C183.69 45.4572 184.346 45.194 185.071 44.5676C185.66 44.0728 186.548 43.12 187.073 42.3935C187.305 42.0987 187.467 41.9303 187.699 41.9303C187.762 41.9303 187.83 41.9303 187.893 41.9619C188.093 41.9935 188.187 42.1251 188.187 42.4251C188.187 42.5251 188.187 42.6252 188.156 42.7883C187.925 44.2044 187.073 46.5732 186.217 47.6576C185.198 48.942 184.409 49.1052 183.164 49.1052H183.001C181.819 49.1052 180.637 48.8104 179.455 48.084C178.961 47.7892 178.504 47.426 178.141 47.0627C177.91 46.8311 177.878 46.4363 177.684 46.1731C177.553 45.9731 177.258 45.8783 177.159 45.6467C176.996 45.3519 176.833 45.0203 176.701 44.6571C175.913 42.6146 175.588 40.3774 175.588 39.2614V39.0298C175.588 38.3402 175.75 38.077 176.507 38.0402L178.083 37.9401L178.078 37.9507Z" fill="white"/>
<path d="M216.676 41.2723C217.495 43.0831 218.352 44.1359 218.746 44.7255C219.04 45.1519 219.24 45.3519 219.403 45.3519C219.565 45.3519 219.728 45.2203 219.959 44.9571C220.385 44.4623 221.305 42.8831 221.567 42.2567C221.73 41.8619 221.993 41.8619 222.156 41.8619C222.387 41.8619 222.581 42.0935 222.581 42.3567V42.4198C222.518 43.0463 222.45 43.7359 222.156 45.1835C222.124 45.2466 222.093 45.2835 222.056 45.3467C222.024 45.4151 221.993 45.4783 221.993 45.5467C221.993 45.6151 222.024 45.6467 222.024 45.7099V45.7731C222.024 45.9362 221.961 46.0994 221.861 46.1994C221.699 47.0206 221.536 47.6786 221.336 48.0734C220.942 48.8315 220.579 49.4895 219.497 49.4895C218.478 49.4895 217.427 48.8999 216.607 47.8102C215.982 47.0206 214.8 45.4098 213.849 43.6622C213.817 43.599 213.749 43.5621 213.717 43.5621C213.686 43.5621 213.618 43.5937 213.523 43.6938L212.735 44.5465C211.159 46.2258 209.682 47.3102 208.069 48.3314C207.906 48.4314 207.743 48.4946 207.575 48.4946C207.444 48.4946 207.313 48.463 207.213 48.363C207.113 48.2629 207.081 48.1629 207.081 48.0682C207.081 47.8366 207.313 47.6049 207.539 47.4102C208.952 46.1257 210.297 44.3833 210.691 43.7885L210.822 43.5253C210.854 43.4253 210.885 43.3937 210.985 43.3621C211.148 43.3305 211.311 43.2621 211.379 43.0673C211.511 42.7725 211.642 42.5409 211.805 42.2777L212.33 41.4249C212.43 41.1617 212.462 40.9301 212.462 40.7354C212.462 40.6353 212.462 40.5353 212.43 40.4406C211.805 38.7297 211.185 36.8189 210.922 35.7029C210.891 35.6398 210.891 35.5713 210.891 35.5029V35.2397C210.859 35.0765 210.759 34.8449 210.691 34.7449L210.56 34.5448C210.528 34.5132 210.497 34.4448 210.46 34.3448C210.134 32.6971 209.509 29.0807 209.278 26.1171C209.246 25.9539 209.146 25.8223 208.983 25.7539L203.298 25.7854C203.235 25.7854 203.167 25.7854 203.104 25.7539L202.81 25.6907C202.747 25.6591 202.647 25.6591 202.515 25.6591C202.416 25.6591 202.284 25.6591 202.221 25.6907L201.927 25.7539C201.864 25.7854 201.796 25.7854 201.733 25.7854L198.218 25.817C198.018 25.817 197.887 25.9486 197.823 26.1803V27.3015C197.823 27.4647 197.855 27.7647 197.887 27.8595C197.95 27.9911 197.95 28.1227 197.95 28.2227C197.95 28.3227 197.95 28.4227 197.918 28.4543C197.818 28.8175 197.755 29.1439 197.755 29.5387C197.755 29.8019 197.787 30.0335 197.818 30.3599V30.5599C197.818 30.8231 197.787 31.318 197.687 32.2076V32.3708C197.687 32.534 197.687 32.6971 197.718 32.834C197.781 32.9972 197.781 33.1288 197.781 33.2288C197.781 33.3288 197.781 33.392 197.75 33.4289C197.555 34.0184 197.356 34.7449 197.356 35.4713V35.7977C197.356 36.9137 197.125 38.6613 196.83 40.1089C196.305 42.7725 193.841 47.1206 192.69 48.2682C192.559 48.3998 192.427 48.563 192.196 48.563C192.133 48.563 192.033 48.5314 191.933 48.463C191.834 48.3998 191.734 48.2629 191.734 48.0682C191.734 47.9366 191.765 47.7734 191.865 47.5418C192.196 46.7206 192.522 45.6994 192.785 44.5149C192.848 44.3149 193.047 44.1201 193.11 43.8885C193.11 43.8569 193.142 43.7885 193.142 43.7253C193.142 43.5937 193.079 43.4621 193.079 43.3305C193.079 43.2621 193.11 43.1989 193.11 43.1673C193.373 41.9145 193.573 40.5985 193.736 39.3825C194.067 36.782 194.098 34.1816 194.161 32.076C194.193 30.5968 194.261 29.1808 194.261 27.7016C194.261 26.6803 194.161 25.6275 194.161 24.5115V24.3484C194.161 23.922 194.293 23.6219 195.081 23.6588C195.769 23.6904 197.545 23.6588 197.776 24.3852C197.939 24.4484 198.139 24.5168 198.333 24.5168L203.819 24.5484C203.981 24.5484 204.276 24.5484 204.444 24.5168L205.463 24.4536C205.526 24.4536 205.594 24.4536 205.657 24.4852L206.083 24.5852C206.183 24.6168 206.377 24.6168 206.54 24.6168H206.703L208.148 24.5168H208.742C209.004 24.5168 209.136 24.3852 209.167 24.1852L209.067 22.2112V19.8476C209.036 19.5844 209.004 19.3844 209.004 19.2212C209.004 19.0896 209.036 18.9896 209.036 18.858C209.067 18.6579 209.362 18.4947 210.218 18.4947H210.644C212.157 18.4947 212.646 18.5948 212.646 19.1212V19.1843C212.646 19.9108 212.614 20.5688 212.614 21.1899C212.614 22.2427 212.646 23.1955 212.677 24.0852C212.808 24.3484 213.071 24.5115 213.334 24.5115H215.861C216.581 24.5115 216.781 24.4115 216.975 24.1799C217.269 23.8167 217.532 23.5219 217.832 23.2587C218.194 22.9323 218.488 22.7639 218.783 22.7639C219.014 22.7639 219.276 22.8639 219.602 23.0903C220.259 23.5166 220.622 23.943 221.047 24.6063C221.178 24.7695 221.21 24.9695 221.21 25.1011C221.21 25.4275 220.979 25.6591 220.453 25.7275L217.401 25.7591C216.712 25.7591 216.187 25.6591 215.824 25.6591C215.693 25.6591 215.562 25.6907 215.462 25.7223C215.331 25.7539 215.168 25.7854 215.005 25.7854C214.674 25.7854 214.316 25.7223 214.085 25.7223H213.234C212.971 25.7539 212.84 25.9223 212.808 26.1171C213.04 29.0807 213.565 32.7972 214.222 34.7712L214.679 36.1556C214.711 36.2556 214.779 36.2872 214.842 36.2872C214.873 36.2872 214.942 36.2556 215.005 36.1872L215.43 35.166C215.462 35.066 215.493 35.0344 215.593 35.0028H215.656C215.719 34.9712 215.719 34.9396 215.719 34.8396L215.688 34.708C215.688 34.6764 215.656 34.6448 215.656 34.608C215.656 34.5711 215.688 34.5448 215.688 34.508C216.345 33.0288 216.902 30.4599 217.164 29.2755C217.264 28.8491 217.395 28.6175 217.821 28.6175C218.147 28.6175 218.641 28.7491 219.429 29.0439C220.543 29.4703 220.805 29.7335 220.805 30.0651C220.805 30.1651 220.805 30.2652 220.774 30.3599C220.48 31.5127 220.217 32.3655 219.954 33.0604L219.628 33.9131C219.003 35.4924 218.021 37.5348 216.87 39.3088L216.444 39.9668C216.413 40.13 216.345 40.2932 216.345 40.4616C216.345 40.5248 216.345 40.5932 216.376 40.6617L216.639 41.2565L216.676 41.2723ZM208.894 42.9515C209.125 43.0515 209.388 43.2463 209.388 43.5464C209.388 43.9096 209.288 44.3991 208.137 46.1152C207.975 46.3468 207.843 46.4416 207.644 46.4416C207.612 46.4416 207.544 46.4416 207.481 46.41C207.318 46.3468 207.155 46.21 207.024 45.9468C206.924 45.7151 206.861 45.6204 206.63 45.3519L205.873 44.4991C205.773 44.4676 205.679 44.436 205.579 44.436C205.516 44.436 205.447 44.436 205.384 44.4676C205.09 44.8308 204.759 45.1572 204.465 45.4572C203.645 46.2152 200.887 48.2524 199.605 48.8157C199.41 48.9157 199.242 48.9473 199.111 48.9473C198.916 48.9473 198.785 48.8473 198.685 48.6841C198.654 48.6209 198.654 48.5525 198.654 48.484C198.654 48.3209 198.717 48.1577 198.885 48.0208C199.279 47.726 199.736 47.2944 200.23 46.8048C200.393 46.6416 200.655 46.5732 200.824 46.41C200.992 46.2468 200.987 45.9836 201.118 45.8204L201.806 45.0308C202.431 44.3412 202.889 43.5832 203.351 42.8252C203.382 42.7252 203.382 42.6251 203.382 42.562C203.382 42.3619 203.319 42.1988 203.151 42.004C202.988 41.904 202.825 41.804 202.657 41.7408C202.395 41.6408 202.263 41.4776 202.263 41.246C202.263 41.1775 202.263 41.1144 202.295 41.0459C202.358 40.8827 202.526 40.8459 202.689 40.8459H202.82C203.183 40.8775 203.577 40.9775 203.934 41.0775C204.165 41.0775 204.297 41.0143 204.391 40.8775L204.685 40.2879C205.405 38.8719 205.636 37.6559 205.899 36.7347C205.931 36.6347 205.931 36.5715 205.931 36.5031C205.931 36.2083 205.736 36.1398 205.274 36.0767C205.143 36.0767 204.911 36.0451 204.617 36.0451C204.354 36.1083 204.023 36.3715 203.861 36.7715L201.691 42.0724C201.265 43.1252 200.871 43.1884 200.277 43.1884C199.589 43.1884 198.57 42.9568 198.107 42.762C197.944 42.6988 197.876 42.5988 197.876 42.4672C197.876 42.2672 198.007 41.9724 198.239 41.646L198.827 40.2616C198.89 40.13 198.958 39.9352 198.99 39.7668C199.021 39.5036 199.053 39.4404 199.09 39.4035C199.484 38.9772 199.878 38.1876 200.141 37.6611L200.503 36.9031C200.566 36.7031 200.634 36.5768 200.634 36.5083C200.634 36.4083 200.571 36.3767 200.472 36.3451C199.978 36.3767 199.452 36.4083 199.09 36.4083C198.139 36.4083 197.908 35.7819 197.908 35.3555C197.908 34.7975 198.333 34.2027 199.027 34.2027C199.584 34.2027 199.946 34.4975 200.177 34.8607C200.277 35.0239 200.44 35.0607 200.703 35.0607C201.029 35.0607 201.26 34.9607 201.459 34.6343L201.885 33.5499C201.916 33.4868 201.948 33.4183 202.016 33.3867C202.079 33.3236 202.116 33.2867 202.116 33.2236V33.1604C202.085 33.0972 202.053 33.0288 202.053 32.9603C202.053 32.9288 202.085 32.8972 202.085 32.8603L202.216 32.3339C202.248 32.2708 202.248 32.2023 202.279 32.1339C202.479 31.7075 202.673 31.5443 203.099 31.5443H203.23C203.624 31.5443 204.612 31.6443 205.332 31.9391C205.526 31.9707 205.594 32.1392 205.594 32.3023C205.594 32.4655 205.531 32.6656 205.463 32.8287L205.101 33.75L204.738 34.6027V34.6659C204.738 34.8975 204.869 34.9607 205.164 34.9975L206.346 34.9344C206.94 34.9028 207.465 34.9028 207.954 34.8028C208.053 34.7712 208.185 34.7712 208.279 34.7712C208.705 34.7712 209.036 34.9712 209.23 35.166C209.393 35.3292 209.525 35.724 209.525 36.1556C209.525 36.2872 209.525 36.4504 209.493 36.582C209.43 36.9768 209.299 37.34 209.167 37.7033C209.036 37.998 208.973 38.2928 208.973 38.556C208.973 38.6192 208.973 38.6876 208.941 38.7561C208.91 38.8877 208.81 39.0193 208.71 39.1509C208.547 39.3509 208.447 39.5773 208.316 39.8773C208.022 40.5353 207.659 41.2249 207.202 41.9513V42.0514C207.202 42.1145 207.234 42.2146 207.334 42.3146L208.878 42.9726L208.894 42.9515ZM202.127 31.3338C201.438 31.3653 200.682 31.4338 199.662 31.6285C199.563 31.6601 199.431 31.6601 199.337 31.6601C198.648 31.6601 198.354 31.1969 198.286 30.6389V30.5073C198.286 29.9493 198.648 29.3913 199.268 29.3913H199.368C199.825 29.3913 200.125 29.5914 200.288 29.9493C200.388 30.1809 200.519 30.2757 200.713 30.2757H200.813L202.058 30.1441C202.158 30.1441 202.253 30.1757 202.321 30.2441L203.897 30.0809H206.031C206.293 30.0809 206.488 29.9177 206.624 29.7545C206.887 29.4282 207.181 29.1966 207.512 28.9649C207.675 28.8649 207.838 28.8017 208.006 28.8017C208.174 28.8017 208.369 28.8649 208.563 29.0334C208.763 29.1966 209.188 29.5598 209.551 30.1178C209.682 30.3178 209.745 30.481 209.745 30.6442C209.745 31.0074 209.451 31.2706 209.057 31.2706H207.938C207.15 31.2706 206.987 31.2706 206.693 31.3706C206.63 31.4022 206.53 31.4022 206.398 31.4022C206.073 31.4022 205.579 31.339 204.791 31.2022L202.132 31.3338H202.127ZM215.362 21.8216C215.231 21.6216 215.231 21.3584 215.099 21.1636C214.968 21.0004 214.737 20.932 214.605 20.8004C214.374 20.5372 214.148 20.274 213.886 20.0424C213.654 19.8423 213.56 19.6791 213.56 19.516C213.56 19.4844 213.591 19.4159 213.591 19.3844C213.654 19.1843 213.786 19.1212 213.985 19.1212H214.085C214.411 19.1527 214.774 19.2528 215.236 19.3844H215.499C215.562 19.3844 215.63 19.3844 215.693 19.4475L215.987 19.6107C216.444 19.7107 217.401 20.1055 217.763 20.3687C218.026 20.5688 218.157 20.7635 218.157 21.0583C218.157 21.3847 217.963 21.7848 217.532 22.3743C217.07 23.0008 216.744 23.264 216.481 23.264C216.25 23.264 216.087 23.1008 215.924 22.8007L215.367 21.8111L215.362 21.8216Z" fill="white"/>
<path d="M237.44 40.4827L236.983 40.5459C236.915 40.5774 236.852 40.5774 236.783 40.5774L236.652 40.5459L236.458 40.5143H236.326C236.226 40.5143 236.163 40.5143 236.095 40.5459L235.932 40.5774C235.869 40.609 235.801 40.609 235.738 40.609L234.293 40.4774H231.403C230.815 40.4774 230.615 40.509 230.484 40.709L230.252 41.5302C230.189 41.7934 230.09 42.0882 230.09 42.2198C230.09 42.4514 230.027 42.7778 229.927 42.8094C229.795 42.841 229.664 43.1042 229.664 43.2358C229.664 43.3674 229.696 43.499 229.696 43.6306C229.696 43.7306 229.664 43.7938 229.632 43.8622C229.533 43.9938 229.401 44.157 229.307 44.4202C228.844 45.6362 228.056 47.1522 227.042 48.5683C226.779 48.8946 226.585 49.0315 226.385 49.0315C226.354 49.0315 226.286 49.0315 226.222 48.9999C226.023 48.8999 225.928 48.7367 225.928 48.5051C225.928 48.4051 225.96 48.3051 225.991 48.1787C226.748 46.0731 227.305 43.0094 227.536 38.4718C227.568 38.1086 227.568 37.7822 227.568 37.419C227.599 37.0926 227.83 36.761 227.862 36.4294C227.862 36.103 227.631 35.7714 227.631 35.4081C227.73 32.8077 227.73 30.1757 227.73 28.2648V21.3636C227.73 21.0004 227.793 20.6741 228.224 20.6056C228.419 20.574 228.85 20.5425 229.275 20.5425C229.832 20.5425 230.457 20.6056 230.82 20.7056C231.014 20.7688 231.114 20.9373 231.114 21.2636L231.083 25.4117C231.146 25.8065 231.377 25.9697 231.771 25.9697H233.021L233.741 26.0329L234.167 25.9328C234.23 25.9013 234.298 25.9013 234.361 25.9013H234.755L238.039 25.7697C238.596 25.7381 238.796 25.5065 238.796 25.1117L238.733 22.906C238.701 22.348 238.407 21.9532 237.356 21.9532C235.811 21.9532 234.435 22.1164 233.384 22.3796C233.284 22.4112 233.19 22.4112 233.09 22.4112C232.464 22.4112 232.102 21.8848 232.102 21.49C232.102 21.0952 232.296 20.5688 232.859 20.4688C232.922 20.4688 232.99 20.4372 233.053 20.4372C233.379 20.4372 233.741 20.5688 233.841 20.732C234.004 20.9636 234.104 21.0952 234.366 21.0952C234.43 21.0952 234.498 21.0636 234.598 21.0636C235.254 20.9636 236.242 20.832 237.256 20.832H237.319C237.614 20.832 237.945 21.032 238.239 21.032C238.47 21.0004 238.696 20.7688 238.927 20.7688H239.421C241.36 20.7688 242.116 21.59 242.148 22.8428L242.211 25.8065C242.211 26.5329 241.98 26.9278 240.961 26.9278H239.353L238.759 27.0278C238.696 27.0278 238.628 27.0278 238.565 26.9962L238.27 26.9646H237.482L231.534 27.1278C231.272 27.1278 231.14 27.2278 231.041 27.4226L231.009 30.8442V32.6866C231.072 33.1499 231.303 33.2446 231.766 33.2815C232.128 33.2499 232.291 33.1814 232.323 32.9551L232.354 29.0386C232.354 28.6754 232.485 28.5438 232.717 28.5122C233.111 28.4491 233.605 28.4122 234.03 28.4122C234.393 28.4122 234.719 28.4438 234.981 28.5122C235.344 28.6122 235.438 28.907 235.438 29.3018L235.407 32.9551C235.47 33.0867 235.538 33.2183 235.733 33.2499H236.489C236.752 33.2183 236.883 33.0183 236.883 32.655V29.0702C236.883 28.6754 237.046 28.5438 237.277 28.5122C237.572 28.4806 237.934 28.4491 238.328 28.4491C238.754 28.4491 239.185 28.4806 239.447 28.5122C239.941 28.5807 240.036 28.907 240.036 29.2018V30.3546C240.036 30.5547 239.805 30.781 239.805 31.0127C239.805 31.3074 239.999 31.439 239.999 31.6707V32.6603C239.999 32.7603 240.031 32.7919 240.062 32.7919C240.094 32.7919 240.162 32.7603 240.225 32.7235L240.419 32.4919L240.482 32.4287C240.714 32.1971 240.976 32.0339 241.271 32.0339C241.565 32.0339 241.859 32.1655 242.19 32.4971C242.384 32.6972 242.684 33.0551 242.878 33.3552C243.01 33.5552 243.041 33.7184 243.041 33.8816C243.041 34.2079 242.778 34.4396 242.253 34.4396H240.383C240.151 34.5027 240.02 34.7028 239.989 34.9344C239.989 36.7136 239.989 38.256 240.02 38.6876C240.052 38.8508 240.083 38.9508 240.151 38.9508C240.22 38.9508 240.251 38.9193 240.346 38.8508L240.771 38.3244C241.097 37.9296 241.496 37.7348 241.891 37.7348C242.216 37.7348 242.547 37.8664 242.873 38.1612C243.299 38.556 243.63 38.9193 243.861 39.2825C243.961 39.4457 244.024 39.6088 244.024 39.7773C244.024 40.1721 243.761 40.5037 243.104 40.5037H237.424L237.44 40.4827ZM232.937 41.5671C233.037 41.5671 233.169 41.5987 233.331 41.6671C234.088 41.9619 234.908 42.5199 235.333 42.9515C235.496 43.1147 235.596 43.3147 235.596 43.5464C235.596 43.8411 235.433 44.1359 235.139 44.3991C234.808 44.6623 234.414 44.9571 234.02 45.3203C233.757 45.5204 233.363 45.552 233.1 45.7836C232.869 45.9836 232.738 46.3732 232.507 46.5732C231.619 47.3312 230.767 48.0892 230.142 48.7104C230.011 48.842 229.848 48.942 229.68 48.942C229.58 48.942 229.48 48.9104 229.417 48.842C229.286 48.7788 229.217 48.642 229.217 48.5156C229.217 48.3524 229.28 48.1893 229.349 47.9892C229.937 46.21 231.519 43.3147 232.207 42.1619C232.47 41.7355 232.664 41.5723 232.932 41.5723L232.937 41.5671ZM230.736 38.9035C230.767 39.1667 230.93 39.2667 231.393 39.2667H231.718C232.144 39.1667 232.307 39.0035 232.307 38.6718V37.419C232.307 37.3558 232.307 37.2874 232.338 37.219L232.438 36.9558C232.438 36.8926 232.47 36.7926 232.47 36.661C232.47 36.5294 232.438 36.3978 232.438 36.3662L232.338 36.103C232.307 36.0398 232.307 35.9714 232.307 35.903V34.7501C232.275 34.5869 232.175 34.4869 232.044 34.4238H231.981C231.324 34.4238 231.062 34.6554 230.962 34.9817C230.93 36.2346 230.899 37.4822 230.799 38.3718L230.736 38.8982V38.9035ZM235.37 38.5402C235.37 38.9351 235.501 39.1351 235.827 39.2983H236.384C236.778 39.2351 236.878 38.9666 236.878 38.6403V34.7922C236.815 34.5922 236.715 34.4975 236.484 34.429H235.664C235.533 34.4606 235.433 34.5606 235.402 34.6606L235.37 38.5455V38.5402ZM241.481 43.7095C241.843 44.0043 242.106 44.2675 242.106 44.8255C242.106 44.9571 242.106 45.0887 242.074 45.2519C241.912 46.0731 241.286 46.8996 240.498 47.3259C240.304 47.426 240.104 47.4891 239.91 47.4891C239.584 47.4891 239.321 47.2891 239.19 46.9311C238.896 46.11 237.939 43.5095 237.151 42.4883C237.051 42.3251 236.952 42.1935 236.952 42.025C236.952 41.8934 236.983 41.7618 237.114 41.6618C237.214 41.5618 237.309 41.4986 237.477 41.4986C237.608 41.4986 237.74 41.5618 237.934 41.6302C238.885 42.025 240.561 42.9463 241.481 43.7043V43.7095ZM255.042 44.5623L255.436 44.7255C256.193 45.0519 256.818 45.3835 257.406 45.5467C257.769 45.6467 258 45.7783 258 46.0731C258 46.2047 257.932 46.3679 257.837 46.5679C257.149 47.7839 256.786 48.3103 256.361 48.742C256.129 48.9736 255.935 49.1052 255.704 49.1052C255.41 49.1052 255.047 48.942 254.459 48.642C253.902 48.3788 253.276 47.984 252.62 47.5207C252.357 47.3207 252.226 46.9627 251.963 46.7311C251.7 46.5311 251.306 46.4995 251.043 46.3047C250.649 45.9415 250.255 45.5783 249.861 45.1519C249.698 45.0519 249.53 44.9887 249.367 44.9887C249.236 44.9887 249.136 45.0203 248.973 45.1203C248.647 45.4519 248.285 45.7467 247.922 46.0415C246.215 47.3575 243.819 48.6735 242.074 49.0999C241.943 49.1315 241.812 49.1631 241.749 49.1631C241.554 49.1631 241.423 49.0631 241.323 48.8999C241.292 48.8367 241.26 48.7367 241.26 48.6683C241.26 48.5051 241.36 48.3735 241.623 48.205C243.399 47.0838 245.301 45.6046 246.451 44.357C246.777 43.9622 247.108 43.599 247.402 43.2042C247.565 42.9726 247.633 42.841 247.633 42.6462C247.633 42.5146 247.602 42.383 247.534 42.183C247.071 41.4934 246.646 40.7354 246.351 40.0458C245.826 38.7929 245.364 37.6454 245.232 36.9189C245.201 36.8558 245.201 36.7557 245.201 36.6873C245.201 36.4873 245.301 36.3241 245.495 36.2241C245.558 36.1925 245.626 36.1925 245.689 36.1925C245.884 36.1925 246.052 36.3241 246.183 36.5557C246.677 37.4453 247.365 38.4666 248.054 39.2562L249.036 40.3406C249.068 40.3721 249.099 40.3721 249.136 40.3721C249.199 40.3721 249.236 40.3721 249.267 40.3406L249.331 40.209C250.15 38.5297 250.907 36.7873 251.07 35.5713V35.3713C251.07 35.0449 250.907 34.9449 250.481 34.9449H246.278C245.653 34.9449 245.258 34.9765 244.539 35.0449H244.376C243.787 35.0449 243.393 34.6501 243.393 33.9921C243.393 33.4341 243.887 33.0393 244.344 33.0393C244.707 33.0393 245.164 33.1025 245.364 33.5657C245.463 33.7973 245.826 33.8921 246.252 33.8921H249.01L249.767 33.7289C249.83 33.6973 249.898 33.6973 249.961 33.6973L250.355 33.7289L250.586 33.7605C250.649 33.7605 250.718 33.7921 250.817 33.7921C250.881 33.7921 250.949 33.7605 251.012 33.7605C251.143 33.6973 251.206 33.6605 251.306 33.6605C251.369 33.6605 251.469 33.6921 251.6 33.7236C251.732 33.7552 252.063 33.7868 252.226 33.7868H254.527C255.052 33.7868 255.415 33.95 255.478 34.4448V34.608C255.478 34.9712 255.284 35.3344 255.052 35.6292L254.464 36.8452L253.938 37.9981C253.907 38.0612 253.875 38.1297 253.839 38.1612L253.707 38.3244C253.644 38.3876 253.513 38.6192 253.476 38.7877L253.345 39.2825C253.313 39.3456 253.313 39.4141 253.282 39.4825C252.888 40.209 252.462 40.9617 251.705 41.9829C251.606 42.1461 251.574 42.2777 251.574 42.4093C251.574 42.5725 251.637 42.7041 251.805 42.8726C252.099 43.1042 252.43 43.299 252.725 43.4674L253.25 43.7622L253.744 44.057L254.401 44.3518L255.058 44.5518L255.042 44.5623ZM248.868 22.7112C248.311 22.7112 248.08 22.7744 247.849 23.106C247.423 23.9588 246.992 24.8169 246.667 25.6381C245.716 27.8753 244.859 30.0809 243.971 32.3866C243.84 32.7498 243.645 32.8814 243.446 32.8814C243.414 32.8814 243.346 32.8498 243.314 32.8498C243.083 32.7866 242.92 32.6182 242.92 32.2918V32.1918C242.92 29.7914 243.609 27.2541 243.971 25.4801C244.003 25.3801 244.003 25.2485 244.034 25.1538C244.097 24.8274 244.428 24.5642 244.46 24.2326C244.491 24.1694 244.491 24.0694 244.491 24.0009C244.491 23.8009 244.428 23.6061 244.428 23.4114C244.428 23.3482 244.46 23.3113 244.46 23.2482C244.786 21.9637 245.148 20.7478 245.348 20.0213C245.511 19.4265 245.873 19.1001 246.598 19.1001C247.323 19.1001 248.143 19.2001 248.9 19.3633C249.194 19.4265 249.394 19.6265 249.394 19.9581C249.394 20.1213 249.331 20.3214 249.199 20.5477L248.936 21.011C248.905 21.111 248.873 21.211 248.873 21.2742C248.873 21.5374 249.105 21.6005 249.499 21.6005H252.357C253.376 21.6005 253.77 22.0638 253.77 22.7849C253.77 22.9165 253.77 23.0481 253.739 23.2113C253.508 24.6905 253.476 25.4801 253.413 26.4382C253.382 26.7014 253.382 26.9014 253.382 27.0962C253.382 27.591 253.445 27.8858 253.513 28.1174C253.613 28.4806 253.807 28.6438 254.07 28.807C254.133 28.8386 254.233 28.8702 254.333 28.8702C254.527 28.8702 254.758 28.7386 255.052 28.4069C255.546 27.8174 256.072 26.6645 256.334 26.0381C256.434 25.8065 256.629 25.7433 256.828 25.7433H256.991C257.154 25.7749 257.354 25.9434 257.354 26.2697V26.3698C257.354 27.291 256.991 29.5598 256.434 30.7495C255.94 31.7707 255.184 32.1971 254.264 32.1971C253.739 32.1971 253.182 32.0655 252.588 31.8023C251.569 31.339 250.749 30.5863 250.455 29.5966L250.355 29.2703C250.355 29.2071 250.324 29.1702 250.324 29.1071C250.324 28.8754 250.423 28.6122 250.423 28.3806V28.2806C250.392 28.0174 250.161 27.7858 250.161 27.5226C250.161 27.391 250.129 27.291 250.129 27.1594C250.129 26.9278 250.161 26.6961 250.161 26.4698C250.192 25.6486 250.392 24.2641 250.392 23.3745V23.2113C250.392 22.8481 250.292 22.7165 249.866 22.7165H248.879L248.868 22.7112Z" fill="white"/>
<path d="M118.311 42.8462C118.154 42.8462 118.075 42.8304 118.075 42.7989C118.075 42.7515 118.296 42.6567 118.863 42.5146C121.932 41.7724 123.876 38.9982 124.9 36.5294C124.27 36.6399 123.681 36.7505 123.319 36.861C123.114 36.9242 122.893 36.9716 122.688 36.9716C122.515 36.9716 122.341 36.94 122.2 36.861C121.122 36.3241 120.681 35.9398 120.681 35.6398C120.681 35.1502 120.776 35.0712 120.854 35.0712C120.933 35.0712 121.044 35.1028 121.217 35.1818C122.005 35.5292 122.499 35.7029 123.287 35.7029C123.87 35.7029 124.569 35.6713 125.247 35.624C125.483 34.9449 125.673 34.15 125.673 33.9447C125.673 33.3446 124.947 33.2972 124.517 33.2025C124.359 33.1709 124.312 33.1235 124.312 33.0604C124.312 33.0446 124.517 32.4129 125.389 32.4129C126.004 32.4129 127.727 33.0288 127.727 33.3973C127.727 33.5868 127.475 33.7921 127.38 34.1079C127.27 34.4869 127.112 34.9607 126.939 35.4713C127.223 35.4555 127.491 35.4239 127.727 35.3923C128.058 35.345 128.263 34.9186 128.678 34.9186C128.977 34.9186 130.307 35.6134 130.307 35.9819C130.307 36.282 129.771 36.5346 129.708 36.8189C129.582 37.4506 129.282 39.114 128.694 40.2721C128.505 40.6511 127.601 42.4093 125.751 42.4093C125.468 42.4093 125.294 42.3304 125.215 42.0619C125.105 41.6987 124.443 40.9038 123.965 40.4458C121.942 42.4725 119.599 42.8515 118.306 42.8515L118.311 42.8462ZM126.624 36.2872C126.103 37.5559 125.342 38.9824 124.222 40.1826C124.821 40.4353 125.426 40.6564 125.946 40.6564C126.466 40.6564 126.944 40.4195 127.259 39.7878C127.701 38.8982 128.242 36.84 128.242 36.4452C128.242 36.303 128.179 36.1293 127.942 36.1293H127.879L126.629 36.2872H126.624Z" fill="white"/>
<path d="M135.745 33.8974H135.855C136.706 33.8342 138.398 33.5499 139.57 33.4236C139.696 33.4078 140.122 32.9972 140.327 32.9498H140.39C140.752 32.9498 141.861 33.5183 142.239 33.771C142.428 33.8974 142.507 34.0395 142.507 34.1816C142.507 34.3869 142.349 34.5922 142.081 34.7659C141.798 34.9396 141.656 35.0186 141.435 35.4292C139.996 38.0244 136.675 42.2409 131.725 42.841C131.568 42.8568 131.442 42.8726 131.347 42.8726C131.189 42.8726 131.111 42.841 131.111 42.8094C131.111 42.7462 131.3 42.6515 131.678 42.5567C136.454 41.2881 139.712 35.1133 139.712 34.5554C139.712 34.429 139.633 34.3974 139.491 34.3974C138.987 34.3974 137.405 34.6975 135.981 35.2028C135.808 35.266 135.635 35.2976 135.477 35.2976C134.752 35.2976 133.06 34.329 133.06 33.7131C133.06 33.6499 133.123 33.2393 133.296 33.2393C133.344 33.2393 133.407 33.2551 133.47 33.3025C134.421 33.7921 135.335 33.8868 135.745 33.8868V33.8974Z" fill="white"/>
<path d="M147.414 38.5666C147.667 38.6613 147.761 38.7719 147.761 38.8982C147.761 39.0561 147.619 39.2614 147.541 39.5773C147.478 39.8931 147.43 40.1458 147.383 40.5458C147.919 40.4827 148.444 40.4353 148.823 40.4195C148.901 40.4195 149.169 40.2458 149.311 40.2142H149.39C149.39 40.2142 150.987 40.3563 150.987 41.0512C150.987 41.3039 150.767 41.5408 150.373 41.5408C150.325 41.5408 150.278 41.5408 150.215 41.525C149.348 41.3986 148.697 41.3828 148.397 41.3828C147.241 41.3828 145.933 41.5565 144.887 41.8566C144.777 41.8882 144.619 41.904 144.477 41.904C143.847 41.904 142.722 41.067 142.722 40.7775C142.722 40.7775 142.722 40.3511 142.927 40.3511C142.99 40.3511 143.053 40.3669 143.148 40.4142C143.652 40.6669 144.115 40.8248 144.651 40.8248C144.856 40.8248 145.344 40.7775 146.311 40.6669C146.343 40.2405 146.39 39.9089 146.39 39.4457V39.3193C146.39 38.9719 146.311 38.9087 145.949 38.7824H145.917L145.381 38.8771C145.334 38.8929 145.287 38.8929 145.239 38.8929C145.097 38.8929 144.971 38.8456 144.861 38.814C144.467 38.6403 143.973 38.2455 143.973 38.0086C143.973 37.9296 144.036 37.598 144.225 37.598C144.272 37.598 144.336 37.6138 144.399 37.6454C144.745 37.8033 145.076 37.898 145.25 37.898H145.297C145.786 37.898 146.957 37.6927 147.746 37.5348C147.856 37.5032 147.998 37.3927 148.124 37.3453C148.171 37.3295 148.234 37.3295 148.329 37.3295C149.579 37.3295 149.627 37.8033 149.627 37.9138C149.627 38.1665 149.374 38.4192 148.886 38.435C148.57 38.435 148.082 38.4665 147.761 38.5139L147.414 38.5613V38.5666Z" fill="white"/>
</g>
<defs>
<clipPath id="clip0_71_114">
<rect width="75" height="68" fill="white"/>
</clipPath>
<clipPath id="clip1_71_114">
<rect width="167" height="31" fill="white" transform="translate(91 18.5)"/>
</clipPath>
</defs>
</svg>
