<svg width="29" height="117" viewBox="0 0 29 117" fill="none" xmlns="http://www.w3.org/2000/svg">
<g clip-path="url(#clip0_37_43)">
<path d="M11.04 17.28C11.04 19.59 10.41 20.16 9.42 20.16C8.73 20.16 8.46 19.86 8.19 19.08C7.92 18.42 7.5 17.76 6.93 17.19C6.87 17.13 6.81 17.13 6.75 17.19C6.21 17.61 5.58 18 4.92 18C3.78 18 2.94 16.86 2.94 16.17C2.94 15.42 3.69 14.82 4.32 14.82C4.8 14.82 4.95 15.03 5.49 15.03C5.82 15.03 6.57 14.73 7.23 14.4C7.86 14.07 8.49 13.74 9.12 13.38C9.18 13.35 9.24 13.26 9.24 13.17C9.15 11.76 9.06 10.17 9 8.79C9 8.67 8.97 8.64 8.88 8.67C7.95 8.94 6.84 9.18 5.88 9.18C4.44 9.18 3.03 8.07 3.15 6.33C3.18 6.09 3.33 6 3.48 6.27C3.78 6.87 4.65 7.14 5.58 7.14C6.39 7.14 7.83 6.87 8.79 6.54C8.88 6.51 8.94 6.42 8.94 6.33L8.91 4.86C8.88 3.48 8.82 2.58 8.61 2.22C8.43 1.92 8.1 1.8 7.77 1.8C7.44 1.8 7.14 1.92 6.78 2.19C6.57 2.37 6.39 2.34 6.42 2.07C6.57 1.02 7.41 0 8.58 0C9.15 0 9.75 0.12 10.26 0.42C10.83 0.75 11.25 1.23 11.25 1.89C11.25 2.31 10.98 2.76 10.86 3.36C10.83 3.48 10.83 3.54 10.95 3.6C11.67 3.96 12.09 4.02 12.96 4.11C13.74 4.23 14.31 4.68 14.31 5.31C14.31 6.03 13.8 6.51 13.14 6.9C12.36 7.35 11.61 7.71 10.68 8.07C10.59 8.1 10.53 8.16 10.53 8.28C10.53 9.66 10.62 11.37 10.71 12.39C10.71 12.48 10.74 12.54 10.86 12.48C13.65 10.98 16.35 9.75 18.87 9.75C21.84 9.75 23.73 11.94 23.73 14.22C23.73 17.52 20.1 20.01 16.98 20.01C15.15 20.01 13.89 18.87 13.89 17.37C13.89 16.14 14.64 15.15 16.05 14.19C16.29 14.01 16.41 14.13 16.23 14.37C15.72 15.03 15.54 15.57 15.54 16.2C15.54 17.13 16.02 17.52 16.89 17.52C18.63 17.52 21.15 15.99 21.15 13.83C21.15 12.39 19.98 10.83 18.15 10.83C16.32 10.83 13.47 12.36 10.98 14.1C10.89 14.16 10.86 14.22 10.86 14.34C10.95 15.27 11.04 16.29 11.04 17.28ZM7.26 16.77C7.2 16.83 7.17 16.89 7.26 16.95C7.89 17.37 8.4 17.61 8.85 17.61C9.24 17.61 9.33 17.46 9.33 16.17V15.36C9.33 15.3 9.27 15.27 9.21 15.3C8.7 15.66 7.95 16.17 7.26 16.77ZM10.56 5.7C10.56 5.79 10.65 5.82 10.71 5.79C11.04 5.64 11.4 5.46 11.67 5.28C11.85 5.16 11.94 5.01 11.94 4.92C11.94 4.83 11.88 4.74 11.76 4.62C11.49 4.35 11.13 4.11 10.86 3.93C10.8 3.9 10.74 3.93 10.74 4.02C10.65 4.53 10.59 5.34 10.56 5.7ZM26.61 7.02C26.61 8.07 25.83 8.58 24.93 8.58C24.18 8.58 23.55 8.85 22.38 9.54C22.11 9.69 21.99 9.6 22.23 9.33C22.62 8.88 23.1 8.34 23.4 7.83C23.55 7.59 23.58 7.44 23.58 7.32C23.58 6.93 22.8 6.48 21.66 6.48C20.58 6.48 19.74 6.81 18.96 7.35C18.66 7.56 18.54 7.38 18.75 7.11C20.13 5.34 21.66 4.53 23.34 4.53C25.14 4.53 26.61 5.64 26.61 7.02Z" fill="black"/>
<path d="M2.88 54.18C2.46 54.18 2.25 53.97 2.25 53.55C2.25 53.13 2.49 50.67 2.49 46.56C2.49 44.16 2.43 42.9 2.25 41.67C2.25 41.55 2.31 41.52 2.43 41.55C3.27 41.94 4.05 42.3 4.74 42.72C4.89 42.81 5.01 42.84 5.19 42.84H8.94C9.12 42.84 9.21 42.81 9.3 42.69C10.11 41.73 10.26 41.58 10.41 41.58C10.56 41.58 10.83 41.73 11.67 42.36C12.6 43.05 12.75 43.23 12.75 43.44C12.75 43.62 12.6 43.8 12 44.22C11.85 44.31 11.82 44.37 11.82 44.55V45.9C11.82 49.56 12.03 52.02 12.03 52.44C12.03 53.28 11.4 53.7 10.14 53.7C9.72 53.7 9.51 53.49 9.51 53.07V51.78C9.51 51.69 9.45 51.63 9.36 51.63H4.92C4.83 51.63 4.77 51.69 4.77 51.78V52.95C4.77 53.76 4.14 54.18 2.88 54.18ZM4.77 43.71V50.76C4.77 50.85 4.83 50.91 4.92 50.91H9.36C9.45 50.91 9.51 50.85 9.51 50.76V43.71C9.51 43.62 9.45 43.56 9.36 43.56H4.92C4.83 43.56 4.77 43.62 4.77 43.71ZM6.93 29.28C6.99 29.28 7.08 29.31 7.14 29.34C7.95 29.7 8.7 30.06 9.45 30.51C9.6 30.6 9.72 30.63 9.9 30.63H18.09C18.27 30.63 18.36 30.6 18.45 30.48C19.32 29.49 19.47 29.34 19.62 29.34C19.77 29.34 20.01 29.49 20.94 30.18C21.96 30.9 22.11 31.11 22.11 31.32C22.11 31.53 21.96 31.68 21.33 32.1C21.18 32.22 21.15 32.28 21.15 32.46V33.87C21.15 36 21.36 38.01 21.36 38.43C21.36 39.33 20.67 39.78 19.35 39.78C18.9 39.78 18.66 39.57 18.66 39.09V38.25C18.66 38.16 18.6 38.1 18.51 38.1H9.6C9.51 38.1 9.45 38.16 9.45 38.25V38.82C9.45 39.72 8.79 40.14 7.47 40.14C7.05 40.14 6.81 39.93 6.81 39.48C6.81 39.03 7.05 36.93 7.05 33.96C7.05 32.31 6.99 30.81 6.81 29.43C6.81 29.34 6.87 29.28 6.93 29.28ZM9.45 31.5V37.23C9.45 37.32 9.51 37.38 9.6 37.38H18.51C18.6 37.38 18.66 37.32 18.66 37.23V31.5C18.66 31.41 18.6 31.35 18.51 31.35H9.6C9.51 31.35 9.45 31.41 9.45 31.5ZM16.2 54.03C15.78 54.03 15.57 53.82 15.57 53.4C15.57 52.98 15.81 50.7 15.81 46.5C15.81 44.13 15.75 42.87 15.57 41.64C15.57 41.52 15.63 41.49 15.75 41.52C16.59 41.88 17.4 42.27 18.09 42.69C18.24 42.78 18.36 42.81 18.54 42.81H22.53C22.71 42.81 22.8 42.78 22.89 42.66C23.73 41.67 23.91 41.52 24.03 41.52C24.18 41.52 24.45 41.67 25.32 42.3C26.31 43.02 26.43 43.17 26.43 43.38C26.43 43.59 26.31 43.77 25.65 44.19C25.5 44.28 25.47 44.34 25.47 44.52V45.84C25.47 49.5 25.68 51.87 25.68 52.29C25.68 53.13 25.02 53.55 23.73 53.55C23.31 53.55 23.1 53.34 23.1 52.92V51.66C23.1 51.57 23.04 51.51 22.95 51.51H18.27C18.18 51.51 18.12 51.57 18.12 51.66V52.77C18.12 53.61 17.46 54.03 16.2 54.03ZM18.12 43.68V50.64C18.12 50.73 18.18 50.79 18.27 50.79H22.95C23.04 50.79 23.1 50.73 23.1 50.64V43.68C23.1 43.59 23.04 43.53 22.95 43.53H18.27C18.18 43.53 18.12 43.59 18.12 43.68Z" fill="black"/>
<path d="M12.15 74.3101C12.24 74.3101 12.3 74.2501 12.3 74.1601V72.0601C12.3 71.9701 12.24 71.9101 12.15 71.9101H9.81C6.81 71.9101 5.31 71.9401 3.9 72.0901C3.75 72.0901 3.69 72.0601 3.6 71.9401C3.36 71.6401 3.18 71.4001 2.97 71.0701C2.88 70.9501 2.94 70.8601 3.06 70.8601C4.95 71.1001 6.81 71.1901 9.81 71.1901H12.15C12.24 71.1901 12.3 71.1301 12.3 71.0401V69.0301C12.3 68.9401 12.24 68.8801 12.15 68.8801H10.17C7.17 68.8801 5.64 68.9401 4.26 69.0901C4.11 69.0901 4.05 69.0601 3.96 68.9401C3.72 68.6401 3.54 68.3701 3.33 68.0401C3.24 67.9201 3.3 67.8301 3.42 67.8301C5.31 68.0701 7.17 68.1601 10.17 68.1601H12.15C12.24 68.1601 12.3 68.1001 12.3 68.0101V65.8501C12.3 65.7601 12.24 65.7001 12.15 65.7001H7.38C4.38 65.7001 2.88 65.7301 1.47 65.9101C1.32 65.9101 1.26 65.8801 1.17 65.7601C0.93 65.4601 0.75 65.1901 0.54 64.8601C0.45 64.7401 0.51 64.6501 0.63 64.6501C2.52 64.8901 4.38 64.9801 7.38 64.9801H12.15C12.24 64.9801 12.3 64.9201 12.3 64.8301V62.7001C12.3 62.6101 12.24 62.5501 12.15 62.5501H10.47C7.47 62.5501 5.97 62.6101 4.56 62.7601C4.41 62.7601 4.35 62.7301 4.26 62.6101C4.02 62.3101 3.84 62.0401 3.63 61.7401C3.54 61.5901 3.6 61.5001 3.72 61.5001C5.61 61.7401 7.47 61.8301 10.47 61.8301H12.15C12.24 61.8301 12.3 61.7701 12.3 61.6801C12.24 60.2401 12.12 59.4001 11.88 58.8001C11.88 58.6801 11.94 58.6201 12.03 58.6201C15.66 59.3101 15.81 59.4601 15.81 59.7901C15.81 60.0001 15.66 60.2101 14.97 60.6601C14.85 60.7501 14.82 60.8101 14.82 60.9901C14.82 61.2001 14.79 61.4401 14.79 61.6801C14.79 61.7701 14.85 61.8301 14.94 61.8301H19.41C19.59 61.8301 19.68 61.8001 19.77 61.6801C20.55 60.7501 20.73 60.6001 20.88 60.6001C21.03 60.6001 21.27 60.7501 22.23 61.4701C23.19 62.1601 23.31 62.3401 23.31 62.5501C23.31 62.7301 23.19 62.8801 22.53 63.3301C22.38 63.4201 22.35 63.4801 22.35 63.6601V64.8301C22.35 64.9201 22.41 64.9801 22.5 64.9801H23.43C23.61 64.9801 23.73 64.9201 23.85 64.8001C24.99 63.4201 25.11 63.2701 25.26 63.2701C25.41 63.2701 25.62 63.4201 26.52 64.1401C27.69 65.0401 27.78 65.2201 27.78 65.4001C27.78 65.5801 27.69 65.7001 27.45 65.7001H22.53C22.44 65.7001 22.38 65.7601 22.38 65.8501C22.41 67.2301 22.53 68.2201 22.53 68.5501C22.53 69.4201 21.87 69.8401 20.64 69.8401C20.22 69.8401 19.98 69.6301 19.98 69.1801V69.0301C19.98 68.9401 19.92 68.8801 19.83 68.8801H14.91C14.82 68.8801 14.76 68.9401 14.76 69.0301V71.0401C14.76 71.1301 14.82 71.1901 14.91 71.1901H20.58C20.76 71.1901 20.85 71.1301 20.97 70.9801C22.08 69.7201 22.2 69.5701 22.35 69.5701C22.5 69.5701 22.71 69.7201 23.58 70.3801C24.72 71.2501 24.81 71.4301 24.81 71.6101C24.81 71.7901 24.72 71.9101 24.48 71.9101H14.91C14.82 71.9101 14.76 71.9701 14.76 72.0601V74.1601C14.76 74.2501 14.82 74.3101 14.91 74.3101H23.55C23.73 74.3101 23.85 74.2801 23.97 74.1301C25.2 72.6301 25.35 72.5101 25.5 72.5101C25.62 72.5101 25.86 72.6301 26.94 73.4701C28.11 74.4001 28.2 74.5501 28.2 74.7301C28.2 74.9401 28.11 75.0301 27.9 75.0301H6.87C3.87 75.0301 2.34 75.0601 0.96 75.2401C0.81 75.2401 0.75 75.2101 0.66 75.0901C0.45 74.8201 0.27 74.5501 0.09 74.2801C0.03 74.1901 0 74.1301 0 74.0701C0 74.0101 0.03 73.9801 0.12 73.9801C2.01 74.2201 3.87 74.3101 6.87 74.3101H12.15ZM5.01 75.8701C5.88 76.2001 6.66 76.5601 7.47 77.0101C7.62 77.1001 7.74 77.1301 7.92 77.1301H19.38C19.56 77.1301 19.65 77.1001 19.74 76.9801C20.52 76.0501 20.67 75.9001 20.82 75.9001C20.97 75.9001 21.21 76.0501 22.2 76.7701C23.19 77.4901 23.34 77.6701 23.34 77.8801C23.34 78.0901 23.19 78.2401 22.56 78.6301C22.41 78.7201 22.38 78.7801 22.38 78.9601V80.0101C22.38 81.6901 22.59 84.1501 22.59 84.6001C22.59 85.4701 21.87 85.9201 20.58 85.9201C20.16 85.9201 19.95 85.6801 19.95 85.2601V84.6901C19.95 84.6001 19.89 84.5401 19.8 84.5401H7.59C7.5 84.5401 7.44 84.6001 7.44 84.6901V84.7501C7.44 85.6501 6.78 86.0401 5.49 86.0401C5.04 86.0401 4.83 85.8301 4.83 85.3801C4.83 84.9601 5.07 82.2901 5.07 80.0401C5.07 78.6301 5.01 77.3701 4.83 75.9901C4.83 75.9001 4.89 75.8401 5.01 75.8701ZM7.44 78.0001V80.1601C7.44 80.2501 7.5 80.3101 7.59 80.3101H19.8C19.89 80.3101 19.95 80.2501 19.95 80.1601V78.0001C19.95 77.9101 19.89 77.8501 19.8 77.8501H7.59C7.5 77.8501 7.44 77.9101 7.44 78.0001ZM7.59 83.8201H19.8C19.89 83.8201 19.95 83.7601 19.95 83.6701V81.1801C19.95 81.0901 19.89 81.0301 19.8 81.0301H7.59C7.5 81.0301 7.44 81.0901 7.44 81.1801V83.6701C7.44 83.7601 7.5 83.8201 7.59 83.8201ZM14.91 64.9801H19.83C19.92 64.9801 19.98 64.9201 19.98 64.8301V62.7001C19.98 62.6101 19.92 62.5501 19.83 62.5501H14.91C14.82 62.5501 14.76 62.6101 14.76 62.7001V64.8301C14.76 64.9201 14.82 64.9801 14.91 64.9801ZM19.98 68.0101V65.8501C19.98 65.7601 19.92 65.7001 19.83 65.7001H14.91C14.82 65.7001 14.76 65.7601 14.76 65.8501V68.0101C14.76 68.1001 14.82 68.1601 14.91 68.1601H19.83C19.92 68.1601 19.98 68.1001 19.98 68.0101Z" fill="black"/>
<path d="M18.6 99.8101C18.78 99.6901 18.9 99.5701 18.9 99.4501C18.9 99.3901 18.81 99.3001 18.69 99.2401C18.09 98.9401 17.4 98.6701 16.89 98.4901C16.59 98.4001 16.65 98.1601 16.95 98.2201C18.33 98.4601 18.6 98.4601 19.35 98.4601C19.89 98.4601 20.28 98.3401 20.82 98.3401C21.57 98.3401 22.14 98.8501 22.14 99.3001C22.14 99.8701 21.72 100.41 20.97 100.92C20.19 101.46 19.32 101.94 18.45 102.3C18.36 102.33 18.33 102.39 18.39 102.48C19.05 103.53 19.74 104.67 20.34 105.81C20.94 106.95 21.15 107.73 21.15 108.54C21.15 109.8 20.16 110.91 18.99 110.91C18.39 110.91 17.85 110.52 17.58 110.25C17.22 109.89 16.74 109.47 16.32 109.2C15.27 108.51 14.04 108.09 12.69 108.09C10.62 108.09 9.03002 109.32 9.03002 110.97C9.03002 112.95 10.41 113.55 12.39 113.55C13.62 113.55 14.37 113.28 15.27 113.28C16.71 113.28 17.19 113.76 17.19 114.45C17.19 115.14 16.8 115.56 16.11 115.89C15.54 116.16 14.61 116.34 13.47 116.34C9.48002 116.34 7.26002 114.66 7.26002 111.96C7.26002 109.26 9.51002 107.31 12.87 107.31C14.52 107.31 15.45 107.55 16.83 107.91C17.16 108 17.55 108.06 17.76 108.06C18.24 108.06 18.57 107.79 18.57 107.37C18.57 107.01 18.51 106.62 18.3 106.05C17.94 105 17.49 103.95 17.01 103.02C16.95 102.9 16.89 102.87 16.8 102.9C15.27 103.38 13.53 103.68 11.97 103.68C9.57002 103.68 6.96002 102.81 6.30002 100.14C6.27002 100.02 6.27002 99.9601 6.27002 99.9001C6.27002 99.7201 6.42002 99.6901 6.57002 99.9001C7.50002 101.07 9.36002 101.79 11.46 101.79C12.93 101.79 14.43 101.52 15.84 101.07C15.9 101.04 15.93 101.01 15.87 100.92C15.3 100.02 14.7 99.0901 14.1 98.1901C14.04 98.1001 13.98 98.0701 13.86 98.1001C13.32 98.2201 12.66 98.3101 12.03 98.3101C9.69002 98.3101 8.04002 97.2601 7.65002 95.3101C7.62002 95.1001 7.74002 95.0401 7.92002 95.2201C8.58002 95.9401 9.72002 96.4501 11.28 96.4501C11.73 96.4501 12.21 96.3901 12.57 96.3001C12.66 96.2701 12.66 96.2401 12.6 96.1501C11.91 95.2501 11.22 94.4701 10.32 93.6601C9.51002 92.9101 8.70002 92.3701 7.80002 92.3701C7.38002 92.3701 7.29002 92.1601 7.65002 91.9201C8.43002 91.4101 9.48002 91.1101 10.26 91.1101C11.04 91.1101 11.58 91.3801 11.94 91.7701C12.3 92.1601 12.6 92.8501 12.93 93.6301C13.23 94.3201 13.68 95.0401 14.1 95.6701C14.16 95.7601 14.22 95.7601 14.28 95.7301C14.64 95.5501 14.94 95.3701 15.24 95.1601C15.6 94.9201 15.99 94.6801 16.41 94.6801C17.22 94.6801 17.85 95.1301 17.85 95.6701C17.85 96.0601 17.58 96.5101 16.86 96.9301C16.47 97.1701 15.99 97.4101 15.51 97.5901C15.42 97.6201 15.39 97.6801 15.45 97.7701C15.99 98.6401 16.56 99.5701 17.13 100.44C17.19 100.53 17.25 100.53 17.31 100.5C17.73 100.32 18.24 100.05 18.6 99.8101Z" fill="black"/>
</g>
<defs>
<clipPath id="clip0_37_43">
<rect width="28.2" height="116.34" fill="white"/>
</clipPath>
</defs>
</svg>
