<svg width="28" height="115" viewBox="0 0 28 115" fill="none" xmlns="http://www.w3.org/2000/svg">
<g clip-path="url(#clip0_39_59)">
<path d="M11.46 17.28C11.46 19.59 10.83 20.16 9.83999 20.16C9.14999 20.16 8.87999 19.86 8.60999 19.08C8.33999 18.42 7.91999 17.76 7.34999 17.19C7.28999 17.13 7.22999 17.13 7.16999 17.19C6.62999 17.61 5.99999 18 5.33999 18C4.19999 18 3.35999 16.86 3.35999 16.17C3.35999 15.42 4.10999 14.82 4.73999 14.82C5.21999 14.82 5.36999 15.03 5.90999 15.03C6.23999 15.03 6.98999 14.73 7.64999 14.4C8.27999 14.07 8.90999 13.74 9.53999 13.38C9.59999 13.35 9.65999 13.26 9.65999 13.17C9.56999 11.76 9.47999 10.17 9.41999 8.79C9.41999 8.67 9.38999 8.64 9.29999 8.67C8.36999 8.94 7.25999 9.18 6.29999 9.18C4.85999 9.18 3.44999 8.07 3.56999 6.33C3.59999 6.09 3.74999 6 3.89999 6.27C4.19999 6.87 5.06999 7.14 5.99999 7.14C6.80999 7.14 8.24999 6.87 9.20999 6.54C9.29999 6.51 9.35999 6.42 9.35999 6.33L9.32999 4.86C9.29999 3.48 9.23999 2.58 9.02999 2.22C8.84999 1.92 8.51999 1.8 8.18999 1.8C7.85999 1.8 7.55999 1.92 7.19999 2.19C6.98999 2.37 6.80999 2.34 6.83999 2.07C6.98999 1.02 7.82999 0 8.99999 0C9.56999 0 10.17 0.12 10.68 0.42C11.25 0.75 11.67 1.23 11.67 1.89C11.67 2.31 11.4 2.76 11.28 3.36C11.25 3.48 11.25 3.54 11.37 3.6C12.09 3.96 12.51 4.02 13.38 4.11C14.16 4.23 14.73 4.68 14.73 5.31C14.73 6.03 14.22 6.51 13.56 6.9C12.78 7.35 12.03 7.71 11.1 8.07C11.01 8.1 10.95 8.16 10.95 8.28C10.95 9.66 11.04 11.37 11.13 12.39C11.13 12.48 11.16 12.54 11.28 12.48C14.07 10.98 16.77 9.75 19.29 9.75C22.26 9.75 24.15 11.94 24.15 14.22C24.15 17.52 20.52 20.01 17.4 20.01C15.57 20.01 14.31 18.87 14.31 17.37C14.31 16.14 15.06 15.15 16.47 14.19C16.71 14.01 16.83 14.13 16.65 14.37C16.14 15.03 15.96 15.57 15.96 16.2C15.96 17.13 16.44 17.52 17.31 17.52C19.05 17.52 21.57 15.99 21.57 13.83C21.57 12.39 20.4 10.83 18.57 10.83C16.74 10.83 13.89 12.36 11.4 14.1C11.31 14.16 11.28 14.22 11.28 14.34C11.37 15.27 11.46 16.29 11.46 17.28ZM7.67999 16.77C7.61999 16.83 7.58998 16.89 7.67999 16.95C8.30999 17.37 8.81999 17.61 9.26999 17.61C9.65999 17.61 9.74999 17.46 9.74999 16.17V15.36C9.74999 15.3 9.68999 15.27 9.62999 15.3C9.11999 15.66 8.36999 16.17 7.67999 16.77ZM10.98 5.7C10.98 5.79 11.07 5.82 11.13 5.79C11.46 5.64 11.82 5.46 12.09 5.28C12.27 5.16 12.36 5.01 12.36 4.92C12.36 4.83 12.3 4.74 12.18 4.62C11.91 4.35 11.55 4.11 11.28 3.93C11.22 3.9 11.16 3.93 11.16 4.02C11.07 4.53 11.01 5.34 10.98 5.7ZM27.03 7.02C27.03 8.07 26.25 8.58 25.35 8.58C24.6 8.58 23.97 8.85 22.8 9.54C22.53 9.69 22.41 9.6 22.65 9.33C23.04 8.88 23.52 8.34 23.82 7.83C23.97 7.59 24 7.44 24 7.32C24 6.93 23.22 6.48 22.08 6.48C21 6.48 20.16 6.81 19.38 7.35C19.08 7.56 18.96 7.38 19.17 7.11C20.55 5.34 22.08 4.53 23.76 4.53C25.56 4.53 27.03 5.64 27.03 7.02Z" fill="black"/>
<path d="M5.1 30.2698C5.34 29.0998 5.4 28.4098 5.34 27.7798C5.34 27.6298 5.4 27.5698 5.49 27.5698C5.58 27.5698 5.67 27.5998 5.76 27.6298C8.94 28.8298 9.15 29.0098 9.15 29.3698C9.15 29.6398 9 29.7598 8.01 30.0898C7.83 30.1498 7.77 30.2098 7.71 30.3898C7.26 31.5598 6.78 32.6698 6.24 33.6598C6.21 33.7498 6.24 33.8098 6.33 33.8098H10.71C10.89 33.8098 10.95 33.7798 11.07 33.6298C12.15 32.2198 12.3 32.0398 12.45 32.0398C12.6 32.0398 12.84 32.1898 13.83 33.0598C14.82 33.8698 14.91 34.0498 14.91 34.2298C14.91 34.4098 14.82 34.5298 14.58 34.5298H10.11C10.02 34.5298 9.96 34.5598 9.96 34.6798C9.96 37.1098 9.9 39.1498 9.75 40.9498C9.75 41.0398 9.81 41.0998 9.9 41.0998H11.37C11.55 41.0998 11.64 41.0698 11.76 40.9198C12.87 39.4198 13.02 39.2998 13.17 39.2998C13.32 39.2998 13.5 39.4198 14.52 40.2898C15.57 41.1598 15.66 41.3398 15.66 41.5198C15.66 41.7298 15.57 41.8198 15.33 41.8198H9.84C9.75 41.8198 9.69 41.8498 9.69 41.9698C9.57 43.1398 9.36 44.1598 9.12 45.1498C9.09 45.2698 9.12 45.2998 9.24 45.3598C12.39 46.8298 14.4 48.8398 14.4 50.5198C14.4 51.5098 13.92 52.0798 13.2 52.0798C12.54 52.0798 12.21 51.7498 11.79 50.6698C11.16 48.8998 10.35 47.4598 9.06 45.9598C8.97 45.8698 8.91 45.8998 8.88 45.9898C8.76 46.3198 8.64 46.6798 8.52 46.9798C7.23 50.0698 4.65 52.5298 0.78 53.9998C0.33 54.1798 0.24 54.2098 0.18 54.2098C0.09 54.2098 0 54.0598 0 53.9998C0 53.9398 0.03 53.9098 0.18 53.8198C3.36 52.0498 5.46 49.5298 6.51 46.2898C6.93 44.9998 7.2 43.5598 7.35 41.9698C7.35 41.8498 7.29 41.8198 7.2 41.8198H6.96C3.96 41.8198 2.46 41.8798 1.08 42.0598C0.93 42.0598 0.87 42.0298 0.78 41.9098C0.54 41.6098 0.33 41.2798 0.12 40.9498C0.03 40.8298 0.09 40.7398 0.21 40.7398C2.1 40.9798 3.96 41.0998 6.96 41.0998H7.26C7.35 41.0998 7.41 41.0398 7.41 40.9498C7.5 39.6598 7.53 38.2198 7.53 36.6898C7.53 35.9998 7.53 35.3398 7.5 34.6798C7.5 34.5598 7.44 34.5298 7.35 34.5298H5.94C5.82 34.5298 5.79 34.5598 5.73 34.6498C4.47 36.8098 3.06 38.5498 1.5 39.8998C1.41 39.9898 1.2 39.8098 1.26 39.7198C3.06 36.9298 4.41 33.6298 5.1 30.2698ZM16.77 53.3998C16.32 53.3998 16.11 53.1598 16.11 52.7398C16.11 52.2898 16.35 48.2098 16.35 39.7798C16.35 35.1898 16.26 33.6898 16.08 32.3398C16.08 32.2198 16.14 32.1598 16.26 32.1898C17.1 32.5498 17.91 33.0298 18.69 33.5098C18.84 33.5998 18.96 33.6298 19.14 33.6298H23.22C23.4 33.6298 23.46 33.5998 23.58 33.4498C24.42 32.3698 24.6 32.2198 24.75 32.2198C24.9 32.2198 25.11 32.3698 26.07 33.1198C27.12 33.9598 27.27 34.1398 27.27 34.3198C27.27 34.5298 27.12 34.6798 26.43 35.1598C26.28 35.2498 26.25 35.3398 26.25 35.5198V39.2398C26.25 46.9198 26.52 50.6998 26.52 51.3898C26.52 52.2598 25.8 52.7398 24.48 52.7398C24.03 52.7398 23.79 52.4998 23.79 52.0798V50.5198C23.79 50.4298 23.73 50.3698 23.64 50.3698H18.84C18.75 50.3698 18.69 50.4298 18.69 50.5198V52.0798C18.69 52.9498 18.03 53.3998 16.77 53.3998ZM23.64 34.3498H18.84C18.75 34.3498 18.69 34.4098 18.69 34.4998V49.4998C18.69 49.5898 18.75 49.6498 18.84 49.6498H23.64C23.73 49.6498 23.79 49.5898 23.79 49.4998V34.4998C23.79 34.4098 23.73 34.3498 23.64 34.3498Z" fill="black"/>
<path d="M11.58 84.4502C16.98 84.0002 20.46 81.8402 20.46 77.8802C20.46 75.9002 19.41 74.5202 17.73 74.5202C16.32 74.5202 15.39 74.9702 14.28 76.0502C13.62 76.6802 13.14 77.3702 12.66 78.0602C12.03 79.0202 11.34 79.5902 10.47 79.5902C8.96999 79.5902 7.73999 78.3902 7.73999 74.8802C7.73999 72.6002 8.36999 70.3502 8.36999 68.7002C8.36999 68.2502 8.33999 67.6502 8.33999 67.2002C8.33999 65.7602 9.02999 64.6802 10.14 64.0202C10.68 63.6902 11.31 63.4502 12.12 63.2402C13.35 62.9102 13.68 62.6102 13.68 62.0102C13.68 61.5302 13.38 60.9002 12.45 60.2402C12.18 60.0602 12.21 59.9102 12.48 59.9102C15.3 59.9402 17.37 62.2802 17.37 63.7202C17.37 64.7402 16.56 65.2802 15.75 65.2802C14.55 65.2802 13.56 64.2602 12.06 64.2602C11.46 64.2602 10.95 64.4402 10.59 64.7402C10.2 65.0702 10.02 65.4602 10.02 66.0602C10.02 67.0202 10.47 67.6202 10.47 68.7302C10.47 69.3302 10.32 69.9002 10.17 70.5002C9.92999 71.4302 9.71999 72.6002 9.71999 74.1302C9.71999 75.8402 10.05 76.3802 10.77 76.3802C11.25 76.3802 12.15 75.7802 12.96 75.1802C14.55 74.0102 15.93 73.3802 18.03 73.3802C21.45 73.3802 23.55 75.6002 23.55 78.1502C23.55 82.9802 17.79 84.7802 12.09 84.7802H11.61C11.28 84.7802 11.25 84.4802 11.58 84.4502Z" fill="black"/>
<path d="M10.8 101.04C13.05 100.41 15.33 99.9002 17.73 99.5402C17.85 99.5102 17.88 99.4502 17.88 99.3602C17.91 98.6402 17.91 97.9502 17.91 97.2602C17.91 94.9202 17.55 94.0802 16.14 93.7202C15.78 93.6302 15.78 93.5102 16.11 93.3302C16.41 93.1802 17.01 92.9102 17.52 92.9102C18.75 92.9102 20.43 93.7202 20.43 95.0702C20.43 95.4002 20.37 95.7002 20.25 96.1502C20.13 96.6302 20.07 97.0202 20.04 97.5602C19.98 98.2802 19.95 98.7002 19.92 99.1202C19.92 99.1802 19.98 99.2102 20.04 99.2102C21.03 99.0902 21.93 99.0002 23.1 98.9102C23.4 98.8802 23.46 98.8502 23.46 98.7602C23.46 98.7002 23.37 98.6101 23.25 98.5201C22.74 98.1901 21.99 97.7702 21.12 97.3202C20.79 97.1402 20.91 96.9602 21.27 97.0502C22.53 97.4102 23.97 97.7702 24.99 98.0102C26.31 98.3402 27 98.8502 27 99.6902C27 100.47 26.55 100.86 25.41 100.86C24.63 100.86 22.95 100.5 21.15 100.5C20.82 100.5 20.49 100.5 19.95 100.53C19.86 100.53 19.8 100.59 19.8 100.68C19.59 102.54 19.29 104.49 18.66 106.2C18.21 107.43 17.19 108.33 16.08 108.33C15.45 108.33 15.15 108.12 15.06 107.49C15 107.01 14.76 106.62 14.52 106.29C14.25 105.96 13.68 105.36 12.87 104.82C12.63 104.67 12.78 104.43 13.02 104.55C14.49 105.18 15.78 105.6 16.11 105.6C16.38 105.6 16.68 105.42 17.01 104.52C17.4 103.41 17.61 102.06 17.76 100.92C17.76 100.83 17.73 100.77 17.61 100.8C15.36 101.16 12.96 101.79 10.74 102.6C10.65 102.63 10.62 102.72 10.62 102.81C10.56 104.22 10.62 106.08 10.68 107.31C10.83 110.07 11.13 110.88 11.91 111.45C12.57 111.93 13.35 112.02 14.49 112.02C16.02 112.02 17.37 111.72 18.21 111.48C18.66 111.36 19.02 111.3 19.47 111.3C21.09 111.3 21.9 111.96 21.9 112.83C21.9 113.46 21.36 113.97 20.4 114.18C19.41 114.39 18.06 114.48 16.35 114.48C13.44 114.48 11.82 113.97 10.77 113.07C9.72003 112.2 9.15002 111.15 8.91002 107.46C8.82002 106.26 8.73002 104.85 8.67002 103.56C8.67002 103.44 8.64002 103.41 8.52002 103.47C8.04002 103.71 7.56002 103.95 7.11002 104.22C6.33002 104.67 5.61002 104.97 4.95002 104.97C3.54002 104.97 1.65002 103.23 1.65002 102.12C1.65002 101.97 1.68002 101.79 1.71002 101.67C1.74002 101.52 1.83002 101.49 1.95002 101.61C2.52002 102.12 3.27002 102.27 4.14002 102.27C5.58002 102.27 7.02002 102.06 8.43002 101.7C8.55002 101.67 8.58002 101.61 8.58002 101.52C8.55002 100.38 8.49002 99.0902 8.28002 98.0402C8.07002 97.0202 7.59002 96.4802 6.96002 96.4802C6.81002 96.4802 6.60002 96.5102 6.45002 96.5702C6.12002 96.6902 6.03002 96.4502 6.27002 96.1802C6.78002 95.5502 7.50002 95.1301 8.01002 95.1301C8.61002 95.1301 9.36002 95.4002 9.96002 95.7602C10.8 96.2402 11.1 96.7502 11.1 97.2902C11.1 97.6202 10.95 98.1002 10.86 98.6702C10.77 99.2702 10.71 100.02 10.65 100.92C10.65 101.01 10.71 101.07 10.8 101.04Z" fill="black"/>
</g>
<defs>
<clipPath id="clip0_39_59">
<rect width="27.27" height="114.48" fill="white"/>
</clipPath>
</defs>
</svg>
